<svg width="401" height="450" viewBox="0 0 401 450" fill="none" xmlns="http://www.w3.org/2000/svg">
<g clip-path="url(#clip0_1_34)">
<path d="M173.67 346.733C77.7549 346.733 0 269.114 0 173.366C0 77.6187 77.7549 0 173.67 0C269.586 0 347.341 77.6187 347.341 173.366C347.341 269.114 269.586 346.733 173.67 346.733Z" fill="#F2F2F2"/>
<path d="M60.1795 77.5291H378.32C379.002 77.5145 379.543 76.9507 379.529 76.2697C379.515 75.6091 378.982 75.0771 378.32 75.0629H60.1795C59.4973 75.0775 58.9561 75.6414 58.9707 76.3224C58.9849 76.9829 59.5179 77.515 60.1795 77.5291Z" fill="#CACACA"/>
<path d="M168.601 119.085H256.547C263.153 119.085 268.508 124.431 268.508 131.025V131.025C268.508 137.619 263.153 142.965 256.547 142.965H168.601C161.995 142.965 156.64 137.619 156.64 131.025C156.64 124.431 161.995 119.085 168.601 119.085Z" fill="white"/>
<path d="M313.361 166.845H111.787C105.181 166.845 99.8264 172.19 99.8264 178.785C99.8264 185.379 105.181 190.725 111.787 190.725H313.361C319.967 190.725 325.322 185.379 325.322 178.785C325.322 172.19 319.967 166.845 313.361 166.845Z" fill="white"/>
<path d="M313.361 214.604H111.787C105.181 214.604 99.8264 219.95 99.8264 226.544C99.8264 233.138 105.181 238.484 111.787 238.484H313.361C319.967 238.484 325.322 233.138 325.322 226.544C325.322 219.95 319.967 214.604 313.361 214.604Z" fill="white"/>
<path d="M338.341 448.95L338.816 448.904C354.911 447.246 369.462 438.604 378.602 425.275C381.105 421.561 383.13 417.547 384.629 413.328L384.773 412.925L384.346 412.891C379.255 412.482 374.024 411.619 371.7 411.209L386.684 406.141L386.777 405.697C387.665 401.531 385.925 397.244 382.381 394.871C378.828 392.383 374.117 392.304 370.481 394.67C368.85 395.71 367.144 396.74 365.494 397.737C359.823 401.161 353.96 404.701 349.563 409.546C342.897 417.038 339.975 427.135 341.612 437.022L338.341 448.95Z" fill="#F2F2F2"/>
<path d="M283.875 441.511L276.49 441.511L272.977 413.074L283.877 413.075L283.875 441.511Z" fill="#A0616A"/>
<path d="M284.135 449.202L261.425 449.201V448.914C261.426 444.041 265.383 440.091 270.265 440.09L274.414 436.949L282.153 440.091L284.136 440.091L284.135 449.202Z" fill="#2F2E41"/>
<path d="M343.059 421.092L337.152 425.516L317.246 404.875L325.965 398.346L343.059 421.092Z" fill="#A0616A"/>
<path d="M347.891 427.088L329.724 440.693L329.552 440.463C326.623 436.565 327.413 431.034 331.318 428.11L332.748 423.111L340.828 420.988L342.414 419.8L347.891 427.088Z" fill="#2F2E41"/>
<path d="M318.51 308.068C318.51 308.068 318.103 319.169 317.588 328.072C317.504 329.532 320.931 331.118 320.842 332.706C320.783 333.76 320.139 334.785 320.079 335.883C320.016 337.043 320.905 338.07 320.842 339.269C320.78 340.44 319.765 341.784 319.704 342.983C319.046 355.89 316.659 371.341 319.049 375.66C320.227 377.789 335.244 407.278 335.244 407.278C335.244 407.278 326.877 419.806 324.486 415.63C321.329 410.115 296.996 384.31 296.996 379.382C296.996 374.461 291.366 337.574 291.366 337.574L287.441 359.403L285.641 363.728L286.207 366.267L285.043 369.694L284.981 373.085L283.848 379.382C283.848 379.382 287.255 428.445 285.336 429.811C283.412 431.183 274.095 433.647 272.995 431.183C271.902 428.719 264.783 379.979 264.783 379.979C264.783 379.979 263.636 357.643 262.393 336.882C262.321 335.677 261.472 334.222 261.406 333.034C261.329 331.656 261.867 329.867 261.795 328.53C261.717 326.997 261.036 325.917 260.97 324.45C260.462 313.109 263.314 299.299 264.222 297.938C266.965 293.834 269.433 290.553 269.433 290.553C269.433 290.553 306.38 278.435 316.253 290.748L318.51 308.068Z" fill="#2F2E41"/>
<path d="M281.661 193.913L296.308 190.989L303.143 200.249C315.896 212.767 316.088 223.816 313.811 241.525V266.38L315.459 283.043C315.459 283.043 321.293 295.223 315.276 298.059C309.26 300.894 269.74 300.653 265.967 299.521C262.194 298.389 265.464 296.999 266.455 291.723C268.316 281.813 267.071 286.593 266.943 283.438C265.107 238.176 269.384 219.594 269.819 214.71L277.267 201.224L281.661 193.913Z" fill="#3F3D56"/>
<path d="M204.466 230.407C205.992 233.294 209.574 234.4 212.467 232.876C212.775 232.713 213.068 232.524 213.343 232.31L244.974 252.359L244.882 241.443L214.156 223.643C211.967 221.194 208.204 220.979 205.75 223.164C203.697 224.992 203.166 227.987 204.466 230.407Z" fill="#A0616A"/>
<path d="M293.225 206.554L296.826 206.174C300.154 205.829 303.418 207.252 305.427 209.921C306.197 210.934 306.75 212.094 307.051 213.328L307.053 213.338C307.957 217.055 306.54 220.95 303.458 223.222L291.021 232.376C282.293 244.149 265.889 251.96 246.647 258.306L216.738 239.763L227.317 226.973L247.832 237.949L278.325 214.385L278.343 214.37L289.949 206.906L293.225 206.554Z" fill="#3F3D56"/>
<path d="M286.61 186.734C277.177 186.734 269.53 179.1 269.53 169.684C269.53 160.268 277.177 152.634 286.61 152.634C296.043 152.634 303.69 160.268 303.69 169.684C303.69 179.1 296.043 186.734 286.61 186.734Z" fill="#A0616A"/>
<path d="M286.216 186.738C286.353 186.742 286.491 186.745 286.629 186.749C286.688 186.902 286.752 187.053 286.825 187.202L286.216 186.738Z" fill="#2F2E41"/>
<path d="M281.528 170.157C281.501 170.325 281.46 170.49 281.406 170.652C281.428 170.483 281.469 170.317 281.528 170.157Z" fill="#2F2E41"/>
<path d="M269.312 153.364C270.015 155.543 270.643 152.779 272.955 153.276C275.738 153.874 278.975 153.669 281.253 151.966C284.648 149.48 289.047 148.811 293.03 150.175C296.928 151.551 303.459 152.522 304.475 156.523C304.828 157.914 304.968 159.424 305.824 160.577C306.572 161.584 307.753 162.159 308.741 162.935C312.076 165.554 309.527 172.995 307.949 176.927C306.37 180.859 302.75 183.723 298.769 185.191C294.918 186.61 290.738 186.861 286.629 186.749C285.914 184.899 286.223 182.762 286.813 180.844C287.451 178.768 288.396 176.764 288.663 174.608C288.93 172.453 288.344 170.004 286.533 168.8C284.869 167.693 282.161 168.367 281.528 170.157C281.897 167.919 279.627 165.754 277.285 165.373C274.772 164.964 272.258 165.87 269.751 166.321C267.245 166.772 268.134 156.238 269.312 153.364Z" fill="#2F2E41"/>
<path d="M173.79 197.888C172.197 178.683 186.502 161.827 205.74 160.237C224.979 158.648 241.865 172.928 243.457 192.132C245.049 211.337 230.745 228.194 211.506 229.783C192.268 231.372 175.382 217.092 173.79 197.888Z" fill="#EAEAEA"/>
<path d="M199.442 180.472L208.623 189.637L217.805 180.472C219.291 178.988 221.701 178.988 223.187 180.472C224.673 181.956 224.673 184.361 223.187 185.845L214.006 195.01L223.187 204.176C224.672 205.661 224.67 208.066 223.182 209.548C221.696 211.029 219.291 211.029 217.805 209.548L208.623 200.383L199.442 209.548C197.954 211.031 195.545 211.028 194.06 209.543C192.577 208.06 192.577 205.659 194.06 204.176L203.241 195.01L194.06 185.845C192.573 184.361 192.573 181.956 194.06 180.472C195.546 178.988 197.956 178.988 199.442 180.472Z" fill="white"/>
<path d="M222.397 165.683C221.367 168.782 223.048 172.127 226.152 173.156C226.482 173.266 226.822 173.346 227.168 173.396L234.573 210.06L242.4 202.437L233.995 167.981C234.251 164.709 231.8 161.849 228.522 161.594C225.779 161.381 223.247 163.071 222.397 165.683Z" fill="#A0616A"/>
<path d="M301.088 213.107L303.856 215.438C306.409 217.596 307.641 220.932 307.102 224.228C306.903 225.483 306.447 226.684 305.763 227.756L305.758 227.765C303.696 230.989 299.9 232.665 296.124 232.018L280.896 229.396C266.343 231.259 249.341 224.85 231.432 215.383L224.13 181.001L240.699 179.767L246.968 202.143L285.113 207.795L285.135 207.798L298.566 210.991L301.088 213.107Z" fill="#3F3D56"/>
<path d="M214.382 449.79L400.189 450C400.638 449.999 401.001 449.634 401 449.185C400.999 448.738 400.636 448.376 400.189 448.375L214.382 448.165C213.932 448.166 213.569 448.531 213.57 448.98C213.572 449.427 213.934 449.789 214.382 449.79Z" fill="#CACACA"/>
<path d="M362.179 61.9091C358.986 61.9091 356.397 59.2673 356.397 56.0085C356.397 52.7496 358.986 50.1078 362.179 50.1078C365.373 50.1078 367.961 52.7496 367.961 56.0085C367.961 59.2673 365.373 61.9091 362.179 61.9091Z" fill="#3F3D56"/>
<path d="M342.205 61.9091C339.011 61.9091 336.422 59.2673 336.422 56.0085C336.422 52.7496 339.011 50.1078 342.205 50.1078C345.398 50.1078 347.987 52.7496 347.987 56.0085C347.987 59.2673 345.398 61.9091 342.205 61.9091Z" fill="#3F3D56"/>
<path d="M322.23 61.9091C319.037 61.9091 316.448 59.2673 316.448 56.0085C316.448 52.7496 319.037 50.1078 322.23 50.1078C325.423 50.1078 328.012 52.7496 328.012 56.0085C328.012 59.2673 325.423 61.9091 322.23 61.9091Z" fill="#3F3D56"/>
<path d="M299.454 60.6721C299.631 60.6721 299.808 60.6035 299.942 60.4669L303.844 56.4856C304.104 56.2203 304.104 55.7964 303.844 55.5311L299.942 51.5501C299.678 51.2808 299.244 51.2765 298.975 51.5395C298.705 51.8031 298.701 52.2353 298.965 52.5046L302.398 56.0083L298.965 59.5124C298.701 59.7816 298.705 60.2139 298.975 60.4775C299.108 60.6075 299.281 60.6721 299.454 60.6721Z" fill="#3F3D56"/>
<path d="M292.898 60.6721C293.07 60.6721 293.243 60.6075 293.376 60.4775C293.646 60.2139 293.65 59.782 293.386 59.5124L289.953 56.0083L293.386 52.5046C293.65 52.2353 293.646 51.8031 293.376 51.5394C293.106 51.2755 292.673 51.2805 292.409 51.5501L288.508 55.5311C288.248 55.7964 288.248 56.2203 288.508 56.4856L292.409 60.4668C292.543 60.6035 292.72 60.6721 292.898 60.6721Z" fill="#3F3D56"/>
<path d="M88.7939 50.791H96.0484C96.8757 50.791 97.5458 51.4598 97.5458 52.2857V59.5344C97.5458 60.3603 96.8757 61.0291 96.0484 61.0291H88.7939C87.9665 61.0291 87.2896 60.3603 87.2896 59.5344V52.2857C87.2896 51.4598 87.9665 50.791 88.7939 50.791Z" fill="#3F3D56"/>
<path d="M106.571 50.791H113.826C114.653 50.791 115.323 51.4598 115.323 52.2857V59.5344C115.323 60.3603 114.653 61.0291 113.826 61.0291H106.571C105.744 61.0291 105.067 60.3603 105.067 59.5344V52.2857C105.067 51.4598 105.744 50.791 106.571 50.791Z" fill="#3F3D56"/>
<path d="M72.0422 51.1322H79.2967C80.124 51.1322 80.7941 51.8011 80.7941 52.627V59.8756C80.7941 60.7015 80.124 61.3704 79.2967 61.3704H72.0422C71.2149 61.3704 70.538 60.7015 70.538 59.8756V52.627C70.538 51.8011 71.2149 51.1322 72.0422 51.1322Z" fill="#3F3D56"/>
<path d="M181.387 53.8897H239.376C240.387 53.8897 241.201 54.7088 241.201 55.7121C241.201 56.7155 240.387 57.5345 239.376 57.5345H181.387C180.382 57.5345 179.562 56.7155 179.562 55.7121C179.562 54.7088 180.382 53.8897 181.387 53.8897Z" fill="#3F3D56"/>
</g>
<defs>
<clipPath id="clip0_1_34">
<rect width="401" height="450" fill="white" transform="matrix(-1 0 0 1 401 0)"/>
</clipPath>
</defs>
</svg>
