<svg width="558" height="424" viewBox="0 0 558 424" fill="none" xmlns="http://www.w3.org/2000/svg">
<g clip-path="url(#clip0_1_183)">
<path d="M411.372 291.572C411.363 316.148 404.525 340.238 391.62 361.151C378.716 382.064 360.255 398.976 338.297 409.998C337.174 410.564 336.038 411.114 334.892 411.647C305.255 425.406 271.589 427.761 240.327 418.261C237.259 417.323 234.239 416.28 231.267 415.13C204.093 404.614 181.145 385.425 165.979 360.537C150.812 335.649 144.275 306.451 147.38 277.469C150.484 248.486 163.058 221.338 183.151 200.23C203.245 179.122 229.737 165.233 258.521 160.717C265.296 159.668 272.142 159.142 278.998 159.144C352.107 159.144 411.372 218.433 411.372 291.572Z" fill="#F2F2F2"/>
<path d="M420.974 310.446C440.708 289.011 450.862 256.921 440.222 229.794C424.546 257.331 399.639 278.433 369.908 289.367C358.427 293.542 345.222 296.99 338.985 307.499C335.104 314.038 334.829 322.222 336.588 329.62C338.347 337.018 341.96 343.822 345.537 350.532L345.559 352.43C373.506 344.213 401.241 331.88 420.974 310.446Z" fill="#E6E6E6"/>
<path d="M439.629 229.939C436.279 253.825 425.491 276.048 408.797 293.451C405.198 297.158 401.225 300.604 396.632 303.023C392.136 305.346 387.101 306.423 382.05 306.141C377.334 305.973 372.53 305.254 367.856 306.236C362.929 307.27 359.031 310.453 356.502 314.746C353.407 319.998 352.384 326.05 351.589 332.003C350.706 338.612 349.894 345.491 346.121 351.179C345.664 351.869 346.76 352.538 347.216 351.85C353.78 341.953 351.568 329.315 355.993 318.644C358.058 313.665 361.635 309.279 366.988 307.77C371.669 306.452 376.623 307.188 381.396 307.4C386.408 307.622 391.179 307.006 395.768 304.883C400.462 302.711 404.578 299.412 408.256 295.814C416.536 287.592 423.472 278.119 428.81 267.741C434.968 255.932 439.061 243.155 440.912 229.964C441.027 229.148 439.742 229.127 439.629 229.939Z" fill="white"/>
<path d="M414.502 288.164C417.801 290.569 421.847 291.724 425.918 291.42C429.989 291.117 433.82 289.375 436.726 286.507C437.312 285.925 436.435 284.987 435.848 285.57C433.147 288.245 429.579 289.867 425.787 290.142C421.996 290.417 418.231 289.327 415.172 287.068C414.507 286.578 413.841 287.677 414.502 288.164Z" fill="white"/>
<path d="M384.429 306.541C383.063 298.305 384.85 289.857 389.433 282.881C389.888 282.19 388.792 281.52 388.338 282.21C383.582 289.479 381.74 298.275 383.181 306.842C383.319 307.658 384.567 307.353 384.429 306.541Z" fill="white"/>
<path d="M433.27 255.809C431.8 255.144 430.517 254.125 429.538 252.842C428.559 251.559 427.914 250.052 427.661 248.458C427.533 247.641 426.286 247.947 426.413 248.759C426.701 250.519 427.415 252.181 428.494 253.601C429.572 255.021 430.982 256.155 432.6 256.904C432.747 256.988 432.919 257.012 433.083 256.973C433.247 256.933 433.39 256.833 433.483 256.692C433.571 256.546 433.598 256.372 433.558 256.207C433.518 256.041 433.415 255.898 433.27 255.809Z" fill="white"/>
<path d="M346.515 199.031C346.58 199.544 346.645 200.057 346.702 200.577C347.541 207.478 347.819 214.435 347.532 221.381C347.518 221.918 347.496 222.462 347.467 222.998C346.598 239.724 342.631 256.143 335.77 271.42C333.035 277.497 329.841 283.356 326.216 288.948C321.21 296.671 315.169 304.645 313.067 313.316C312.838 314.218 312.664 315.134 312.548 316.057L343.242 352.31C343.353 352.357 343.457 352.412 343.568 352.46L344.727 353.963C344.935 353.688 345.143 353.398 345.35 353.123C345.471 352.963 345.585 352.796 345.706 352.637C345.784 352.528 345.862 352.419 345.939 352.325C345.965 352.289 345.991 352.253 346.009 352.224C346.086 352.13 346.148 352.035 346.216 351.948C347.388 350.33 348.551 348.701 349.704 347.061C349.712 347.054 349.712 347.054 349.714 347.039C358.468 334.521 366.255 321.161 371.768 307.043C371.934 306.619 372.108 306.187 372.26 305.746C374.709 299.369 376.633 292.802 378.013 286.111C378.757 282.445 379.315 278.743 379.685 275.02C380.622 265.4 380.04 255.692 377.962 246.252C373.815 227.435 363.699 210.154 347.742 199.81C347.333 199.545 346.932 199.289 346.515 199.031Z" fill="#E6E6E6"/>
<path d="M346.124 199.502C357.825 220.592 362.585 244.833 359.73 268.784C359.087 273.911 357.989 279.056 355.777 283.754C353.586 288.316 350.214 292.209 346.011 295.026C342.145 297.732 337.877 300.052 334.735 303.651C331.424 307.444 330.227 312.334 330.791 317.285C331.481 323.342 334.306 328.79 337.254 334.022C340.527 339.831 344.018 345.813 344.429 352.627C344.479 353.453 345.757 353.327 345.707 352.503C344.992 340.647 335.62 331.889 332.731 320.704C331.383 315.485 331.6 309.827 334.966 305.399C337.909 301.527 342.308 299.131 346.247 296.425C350.382 293.584 353.821 290.218 356.207 285.759C358.648 281.198 359.949 276.084 360.72 270.996C362.383 259.444 362.22 247.703 360.237 236.202C358.046 223.064 353.625 210.397 347.165 198.75C346.764 198.029 345.726 198.786 346.124 199.502Z" fill="white"/>
<path d="M361.103 261.126C365.185 261.06 369.11 259.544 372.178 256.85C375.246 254.155 377.257 250.458 377.851 246.417C377.968 245.6 376.703 245.378 376.586 246.198C376.039 249.961 374.166 253.405 371.304 255.908C368.442 258.411 364.78 259.808 360.979 259.848C360.153 259.857 360.282 261.135 361.103 261.126Z" fill="white"/>
<path d="M348.152 293.912C342.104 288.16 338.446 280.338 337.908 272.007C337.855 271.182 336.577 271.307 336.63 272.131C337.207 280.8 341.03 288.932 347.336 294.904C347.938 295.473 348.75 294.478 348.152 293.912Z" fill="white"/>
<path d="M356.616 223.988C355.042 224.343 353.405 224.301 351.851 223.867C350.297 223.432 348.876 222.618 347.714 221.498C347.12 220.922 346.308 221.917 346.898 222.49C348.188 223.721 349.759 224.618 351.474 225.102C353.19 225.586 354.998 225.643 356.741 225.267C356.908 225.245 357.061 225.16 357.168 225.03C357.275 224.9 357.328 224.734 357.317 224.565C357.3 224.396 357.217 224.241 357.086 224.133C356.954 224.024 356.786 223.973 356.616 223.988Z" fill="white"/>
<path d="M557.301 25.7268H0.698787C0.512076 25.7226 0.334408 25.6455 0.203824 25.5119C0.0732396 25.3784 0.00012207 25.1989 0.00012207 25.0121C0.00012207 24.8253 0.0732396 24.6459 0.203824 24.5123C0.334408 24.3787 0.512076 24.3016 0.698787 24.2975H557.301C557.488 24.3016 557.666 24.3787 557.796 24.5123C557.927 24.6459 558 24.8253 558 25.0121C558 25.1989 557.927 25.3784 557.796 25.5119C557.666 25.6455 557.488 25.7226 557.301 25.7268Z" fill="#CACACA"/>
<path d="M16.4266 15.7219C20.6717 15.7219 24.113 12.2024 24.113 7.86096C24.113 3.51947 20.6717 0 16.4266 0C12.1815 0 8.74011 3.51947 8.74011 7.86096C8.74011 12.2024 12.1815 15.7219 16.4266 15.7219Z" fill="#3F3D56"/>
<path d="M42.9799 15.7219C47.225 15.7219 50.6663 12.2024 50.6663 7.86096C50.6663 3.51947 47.225 0 42.9799 0C38.7347 0 35.2934 3.51947 35.2934 7.86096C35.2934 12.2024 38.7347 15.7219 42.9799 15.7219Z" fill="#3F3D56"/>
<path d="M69.5331 15.7219C73.7782 15.7219 77.2196 12.2024 77.2196 7.86096C77.2196 3.51947 73.7782 0 69.5331 0C65.288 0 61.8466 3.51947 61.8466 7.86096C61.8466 12.2024 65.288 15.7219 69.5331 15.7219Z" fill="#3F3D56"/>
<path d="M541.392 4.80829H522.525C522.152 4.80008 521.796 4.6459 521.535 4.37875C521.274 4.11161 521.127 3.75274 521.127 3.37903C521.127 3.00531 521.274 2.64645 521.535 2.3793C521.796 2.11216 522.152 1.95798 522.525 1.94977H541.392C541.765 1.95798 542.121 2.11216 542.382 2.3793C542.643 2.64645 542.789 3.00531 542.789 3.37903C542.789 3.75274 542.643 4.11161 542.382 4.37875C542.121 4.6459 541.765 4.80008 541.392 4.80829Z" fill="#3F3D56"/>
<path d="M541.392 10.168H522.525C522.152 10.1598 521.796 10.0056 521.535 9.73845C521.274 9.47131 521.128 9.11247 521.128 8.73878C521.128 8.36509 521.274 8.00625 521.535 7.73911C521.796 7.47196 522.152 7.31776 522.525 7.30951H541.392C541.765 7.31776 542.121 7.47196 542.382 7.73911C542.643 8.00625 542.789 8.36509 542.789 8.73878C542.789 9.11247 542.643 9.47131 542.382 9.73845C542.121 10.0056 541.765 10.1598 541.392 10.168Z" fill="#3F3D56"/>
<path d="M541.392 15.5278H522.525C522.152 15.5195 521.796 15.3653 521.535 15.0982C521.274 14.8311 521.128 14.4722 521.128 14.0985C521.128 13.7248 521.274 13.366 521.535 13.0988C521.796 12.8317 522.152 12.6775 522.525 12.6693H541.392C541.765 12.6775 542.121 12.8317 542.382 13.0988C542.643 13.366 542.789 13.7248 542.789 14.0985C542.789 14.4722 542.643 14.8311 542.382 15.0982C542.121 15.3653 541.765 15.5195 541.392 15.5278Z" fill="#3F3D56"/>
<path d="M150.907 345.453C135.163 328.352 127.062 302.749 135.551 281.106C148.057 303.076 167.929 319.912 191.65 328.636C200.81 331.967 211.345 334.718 216.321 343.102C219.417 348.319 219.637 354.849 218.234 360.751C216.83 366.654 213.948 372.082 211.094 377.435L211.076 378.95C188.78 372.394 166.651 362.554 150.907 345.453Z" fill="#E6E6E6"/>
<path d="M136.024 281.222C138.697 300.279 147.304 318.009 160.623 331.894C163.437 334.934 166.713 337.511 170.329 339.531C173.915 341.385 177.932 342.243 181.963 342.019C185.725 341.884 189.558 341.311 193.287 342.094C195.19 342.523 196.981 343.35 198.542 344.52C200.103 345.69 201.4 347.177 202.346 348.884C204.815 353.075 205.631 357.903 206.265 362.652C206.97 367.925 207.618 373.413 210.628 377.952C210.993 378.502 210.118 379.036 209.754 378.487C204.517 370.591 206.282 360.508 202.751 351.994C201.104 348.022 198.25 344.522 193.979 343.319C190.245 342.267 186.292 342.854 182.484 343.023C178.555 343.3 174.619 342.611 171.018 341.015C167.31 339.186 163.941 336.739 161.054 333.779C154.448 327.22 148.915 319.662 144.656 311.382C139.743 301.96 136.477 291.766 135 281.243C134.909 280.591 135.934 280.575 136.024 281.222Z" fill="white"/>
<path d="M156.071 327.676C153.439 329.595 150.211 330.516 146.963 330.274C143.715 330.032 140.659 328.643 138.34 326.354C137.872 325.89 138.572 325.141 139.04 325.606C141.196 327.741 144.043 329.035 147.068 329.254C150.093 329.473 153.096 328.604 155.536 326.802C156.067 326.411 156.599 327.287 156.071 327.676Z" fill="white"/>
<path d="M180.064 342.338C181.154 335.767 179.729 329.027 176.072 323.461C175.709 322.91 176.583 322.375 176.946 322.926C180.74 328.725 182.209 335.743 181.06 342.578C180.95 343.229 179.955 342.986 180.064 342.338Z" fill="white"/>
<path d="M141.097 301.862C142.271 301.332 143.294 300.518 144.075 299.495C144.856 298.471 145.371 297.269 145.573 295.998C145.674 295.345 146.67 295.589 146.569 296.237C146.339 297.641 145.769 298.968 144.908 300.101C144.047 301.234 142.923 302.138 141.632 302.736C141.515 302.803 141.377 302.822 141.246 302.791C141.116 302.759 141.002 302.679 140.928 302.566C140.858 302.45 140.836 302.311 140.868 302.179C140.9 302.047 140.982 301.933 141.097 301.862Z" fill="white"/>
<path d="M210.314 256.563C210.262 256.972 210.21 257.381 210.164 257.797C209.495 263.302 209.273 268.853 209.502 274.394C209.513 274.823 209.531 275.257 209.554 275.685C210.248 289.029 213.412 302.128 218.886 314.317C221.069 319.165 223.617 323.84 226.508 328.302C230.502 334.463 235.323 340.825 236.999 347.743C237.182 348.463 237.321 349.193 237.414 349.93L212.925 378.854C212.836 378.892 212.754 378.935 212.665 378.973L211.74 380.173C211.575 379.953 211.408 379.722 211.243 379.502C211.146 379.375 211.055 379.242 210.959 379.115C210.897 379.028 210.834 378.941 210.773 378.866C210.752 378.837 210.731 378.808 210.717 378.785C210.656 378.71 210.607 378.634 210.552 378.565C209.617 377.275 208.689 375.975 207.769 374.666C207.763 374.661 207.763 374.661 207.762 374.649C200.777 364.661 194.564 354.002 190.166 342.739C190.034 342.4 189.895 342.056 189.774 341.703C187.819 336.615 186.284 331.376 185.183 326.038C184.59 323.113 184.144 320.16 183.849 317.19C183.102 309.514 183.566 301.769 185.224 294.237C188.533 279.224 196.604 265.437 209.335 257.184C209.661 256.973 209.981 256.768 210.314 256.563Z" fill="#E6E6E6"/>
<path d="M210.626 256.939C201.29 273.765 197.492 293.105 199.77 312.214C200.187 316.336 201.252 320.367 202.924 324.158C204.672 327.798 207.362 330.903 210.716 333.151C213.8 335.31 217.206 337.161 219.712 340.032C220.973 341.521 221.905 343.26 222.448 345.134C222.99 347.009 223.13 348.977 222.859 350.91C222.308 355.742 220.054 360.089 217.702 364.263C215.091 368.898 212.306 373.67 211.978 379.107C211.938 379.766 210.919 379.666 210.958 379.008C211.529 369.549 219.006 362.561 221.311 353.637C222.386 349.473 222.214 344.96 219.528 341.427C217.179 338.337 213.67 336.426 210.528 334.267C207.224 332.122 204.496 329.2 202.581 325.757C200.722 322.064 199.504 318.081 198.98 313.979C197.653 304.763 197.784 295.395 199.366 286.219C201.114 275.737 204.641 265.631 209.795 256.338C210.115 255.763 210.943 256.368 210.626 256.939Z" fill="white"/>
<path d="M198.675 306.104C195.418 306.051 192.286 304.842 189.839 302.692C187.391 300.543 185.787 297.593 185.313 294.369C185.219 293.717 186.228 293.54 186.322 294.194C186.758 297.196 188.253 299.944 190.536 301.941C192.819 303.938 195.741 305.053 198.774 305.084C199.433 305.092 199.33 306.112 198.675 306.104Z" fill="white"/>
<path d="M209.008 332.262C213.833 327.673 216.751 321.432 217.181 314.785C217.223 314.127 218.242 314.227 218.2 314.885C217.74 321.801 214.69 328.289 209.658 333.054C209.179 333.507 208.53 332.714 209.008 332.262Z" fill="white"/>
<path d="M202.254 276.475C203.51 276.758 204.817 276.724 206.056 276.377C207.296 276.031 208.43 275.381 209.357 274.488C209.831 274.028 210.479 274.822 210.008 275.279C208.979 276.262 207.726 276.977 206.357 277.363C204.988 277.75 203.545 277.795 202.155 277.494C202.022 277.477 201.9 277.41 201.814 277.306C201.729 277.202 201.686 277.069 201.695 276.935C201.709 276.8 201.775 276.676 201.88 276.59C201.985 276.503 202.119 276.462 202.254 276.475Z" fill="white"/>
<path d="M516.023 76.1031H78.6791C78.0309 76.1038 77.389 75.9768 76.7899 75.7292C76.1909 75.4816 75.6465 75.1183 75.1879 74.6601C74.7293 74.2018 74.3655 73.6577 74.1173 73.0587C73.8691 72.4597 73.7414 71.8176 73.7414 71.1692C73.7414 70.5208 73.8691 69.8787 74.1173 69.2798C74.3655 68.6808 74.7293 68.1366 75.1879 67.6784C75.6465 67.2202 76.1909 66.8569 76.7899 66.6093C77.389 66.3616 78.0309 66.2346 78.6791 66.2354H516.023C516.671 66.2346 517.313 66.3616 517.912 66.6093C518.511 66.8569 519.055 67.2202 519.514 67.6784C519.973 68.1366 520.336 68.6808 520.585 69.2798C520.833 69.8787 520.961 70.5208 520.961 71.1692C520.961 71.8176 520.833 72.4597 520.585 73.0587C520.336 73.6577 519.973 74.2018 519.514 74.6601C519.055 75.1183 518.511 75.4816 517.912 75.7292C517.313 75.9768 516.671 76.1038 516.023 76.1031Z" fill="#EAEAEA"/>
<path d="M516.023 95.5992H78.6791C77.371 95.5992 76.1165 95.0794 75.1915 94.1541C74.2666 93.2287 73.747 91.9737 73.747 90.6651C73.747 89.3565 74.2666 88.1015 75.1915 87.1762C76.1165 86.2509 77.371 85.731 78.6791 85.731H516.023C517.331 85.731 518.585 86.2509 519.51 87.1762C520.435 88.1015 520.955 89.3565 520.955 90.6651C520.955 91.9737 520.435 93.2287 519.51 94.1541C518.585 95.0794 517.331 95.5992 516.023 95.5992Z" fill="#EAEAEA"/>
<path d="M430.352 115.095H78.6791C77.371 115.095 76.1165 114.576 75.1915 113.65C74.2666 112.725 73.747 111.47 73.747 110.161C73.747 108.853 74.2666 107.598 75.1915 106.672C76.1165 105.747 77.371 105.227 78.6791 105.227H430.352C431.66 105.227 432.914 105.747 433.839 106.672C434.764 107.598 435.284 108.853 435.284 110.161C435.284 111.47 434.764 112.725 433.839 113.65C432.914 114.576 431.66 115.095 430.352 115.095Z" fill="#EAEAEA"/>
<path d="M487.443 274.611C492.372 277.958 497.851 281.724 499.439 287.834C499.805 289.138 499.902 290.504 499.726 291.847C499.55 293.191 499.105 294.485 498.416 295.652C497.151 297.761 495.267 299.418 493.429 301.015C491.245 302.912 489.044 304.777 487.349 307.146C486.574 308.23 488.367 309.265 489.135 308.19C492.277 303.798 497.496 301.311 500.261 296.598C503.53 291.025 501.348 284.415 497.297 279.903C494.768 277.087 491.598 274.937 488.487 272.824C487.383 272.074 486.347 273.866 487.443 274.611Z" fill="#E6E7E8"/>
<path d="M504.679 274.611C509.608 277.958 515.087 281.724 516.676 287.834C517.041 289.138 517.138 290.504 516.963 291.847C516.787 293.191 516.341 294.485 515.652 295.652C514.387 297.761 512.503 299.418 510.665 301.015C508.481 302.912 506.28 304.777 504.586 307.146C503.81 308.23 505.603 309.265 506.372 308.19C509.513 303.798 514.733 301.311 517.497 296.598C520.766 291.025 518.585 284.415 514.533 279.903C512.005 277.087 508.834 274.937 505.723 272.824C504.619 272.074 503.583 273.866 504.679 274.611Z" fill="#E6E7E8"/>
<path d="M85.045 274.611C80.116 277.958 74.6371 281.724 73.0487 287.834C72.6835 289.138 72.5859 290.504 72.7618 291.847C72.9376 293.191 73.3833 294.485 74.0721 295.652C75.3369 297.761 77.2214 299.418 79.0596 301.015C81.2433 302.912 83.4443 304.777 85.1386 307.146C85.9145 308.23 84.1214 309.265 83.3526 308.19C80.2116 303.798 74.9917 301.311 72.2273 296.598C68.958 291.025 71.1398 284.415 75.1913 279.903C77.7197 277.087 80.8902 274.937 84.0011 272.824C85.1053 272.074 86.1413 273.866 85.045 274.611Z" fill="#E6E7E8"/>
<path d="M67.8088 274.611C62.8798 277.958 57.4009 281.724 55.8124 287.834C55.4473 289.138 55.3497 290.504 55.5256 291.847C55.7014 293.191 56.1471 294.485 56.8358 295.652C58.1007 297.761 59.9852 299.418 61.8233 301.015C64.0071 302.912 66.208 304.777 67.9023 307.146C68.6782 308.23 66.8851 309.265 66.1164 308.19C62.9753 303.798 57.7554 301.311 54.9911 296.598C51.7218 291.025 53.9035 284.415 57.9551 279.903C60.4835 277.087 63.6539 274.937 66.7649 272.824C67.8691 272.074 68.9051 273.866 67.8088 274.611Z" fill="#E6E7E8"/>
<path d="M257.937 202.98C266.821 202.98 274.022 195.776 274.022 186.888C274.022 178.001 266.821 170.797 257.937 170.797C249.054 170.797 241.852 178.001 241.852 186.888C241.852 195.776 249.054 202.98 257.937 202.98Z" fill="#2F2E41"/>
<path d="M283.673 264.128C306.178 264.128 324.422 245.877 324.422 223.363C324.422 200.849 306.178 182.597 283.673 182.597C261.168 182.597 242.924 200.849 242.924 223.363C242.924 245.877 261.168 264.128 283.673 264.128Z" fill="#2F2E41"/>
<path d="M287.045 264.118C305.333 264.118 320.158 249.287 320.158 230.992C320.158 212.696 305.333 197.865 287.045 197.865C268.757 197.865 253.932 212.696 253.932 230.992C253.932 249.287 268.757 264.118 287.045 264.118Z" fill="#9E616A"/>
<path d="M309.533 197.224C303.73 193.685 297.084 191.771 290.289 191.681C283.494 191.591 276.799 193.33 270.906 196.714C265.012 200.099 260.135 205.005 256.786 210.921C253.436 216.836 251.737 223.543 251.865 230.34C268.738 234.578 286.464 237.821 304.458 231.354L308.707 220.95L311.213 231.361C316.692 233.602 322.186 235.498 327.68 231.34C327.904 224.562 326.346 217.844 323.162 211.857C319.977 205.87 315.277 200.824 309.533 197.224Z" fill="#2F2E41"/>
<path d="M223.975 292.262H223.932C221.75 292.283 219.614 291.643 217.804 290.425C215.993 289.208 214.594 287.47 213.79 285.441C212.926 283.387 212.704 281.118 213.153 278.935C213.603 276.752 214.702 274.756 216.308 273.21L216.494 273.025C222.761 266.711 226.292 258.183 226.324 249.284C226.331 236.718 219.3 225.105 212.709 215.206L211.494 213.385C204.925 203.554 198.132 193.389 196.403 181.679C194.567 169.243 199.274 156.116 208.395 148.237C217.863 140.059 232.135 137.861 243.105 142.892C254.474 148.107 261.787 161.099 260.116 173.112L260.099 173.236L256.104 176.832L255.957 176.82C246.496 176.091 237.073 182.327 234.028 191.312C231.978 197.361 232.715 203.989 233.817 210.25C236.152 223.511 240.079 236.442 245.511 248.762C245.787 249.387 246.066 250.016 246.349 250.646C249.516 257.74 252.79 265.074 251.536 272.671C249.554 284.677 236.816 291.703 225.836 292.218C225.214 292.248 224.594 292.262 223.975 292.262Z" fill="#2F2E41"/>
<path d="M368.026 389.583C359.091 397.709 349.089 404.577 338.297 409.999L336.015 402.646L334.175 409.812L334.892 411.647C334.099 412.019 333.299 412.378 332.499 412.73C331.817 413.033 331.134 413.33 330.452 413.62C305.457 424.124 277.849 426.733 251.33 421.096C250.634 420.951 249.945 420.8 249.255 420.641C246.242 419.951 243.264 419.151 240.327 418.262L244.436 402.977L240.782 384.499L231.267 415.13C220.467 410.948 210.264 405.364 200.918 398.521C203.841 379.616 207.268 356.924 209.384 341.219C210.15 335.48 210.742 330.68 211.073 327.328C211.342 324.186 211.957 321.084 212.907 318.078C213.374 316.625 213.972 315.217 214.693 313.871C214.845 313.575 215.01 313.292 215.176 313.016C215.334 312.747 215.5 312.492 215.672 312.243C219.905 305.932 225.338 306.319 225.338 306.319L241.554 303.153L246.621 302.159L248.683 301.759L251.206 301.263C253.134 300.887 254.961 300.11 256.57 298.984C258.179 297.858 259.534 296.407 260.548 294.724L267.436 283.282C268.895 280.863 271.048 278.938 273.613 277.757C273.924 277.619 274.241 277.488 274.558 277.364C275.958 276.839 277.434 276.543 278.929 276.488L288.678 276.108L292.621 275.95L298.006 275.743C299.277 275.692 300.548 275.818 301.784 276.115H301.791C302.225 276.219 302.639 276.336 303.06 276.481C306.317 277.581 309.057 279.839 310.761 282.826L315.573 291.269C316.656 293.167 318.166 294.788 319.984 296.001C321.802 297.213 323.878 297.986 326.046 298.256L327.894 298.483L329.969 298.745L335.216 299.401L344.799 300.601L344.82 300.966C346.654 301.111 351.88 302.187 355.382 309.657C355.616 310.147 355.837 310.671 356.051 311.216C357.277 314.528 358.059 317.988 358.374 321.506C358.395 321.658 358.409 321.81 358.422 321.962C359.595 333.915 364.138 364.394 368.026 389.583Z" fill="#2F2E41"/>
<path d="M289.946 420.841L289.291 423.897L287.271 423.462L287.872 420.66C289.768 411.817 290.624 402.783 290.423 393.741L287.885 279.426L287.837 277.371L287.809 276.122L288.857 276.101L289.877 276.081L289.981 280.826L292.492 393.947C292.693 402.98 291.838 412.006 289.946 420.841Z" fill="#EAEAEA"/>
<path d="M208.915 344.64L237.996 348.612L240.03 348.888L241.271 349.061L241.127 350.095L240.982 351.109L236.28 350.468L208.633 346.688L208.915 344.64Z" fill="#EAEAEA"/>
<path d="M295.703 278.012L292.621 275.95L288.857 276.101L288.678 276.108L287.837 277.371L287.885 279.426L289.981 280.826L292.635 282.599C292.936 282.801 293.274 282.943 293.63 283.014C293.986 283.086 294.352 283.087 294.708 283.017C295.064 282.947 295.403 282.807 295.704 282.606C296.006 282.404 296.266 282.146 296.467 281.844C296.669 281.542 296.81 281.204 296.88 280.848C296.951 280.492 296.951 280.125 296.88 279.769C296.809 279.413 296.669 279.075 296.467 278.773C296.265 278.472 296.005 278.213 295.703 278.012ZM295.317 281.074C295.165 281.301 294.949 281.477 294.697 281.581C294.445 281.685 294.168 281.712 293.9 281.658C293.633 281.604 293.388 281.473 293.195 281.279C293.002 281.086 292.871 280.84 292.819 280.573C292.766 280.305 292.793 280.028 292.898 279.776C293.002 279.524 293.179 279.308 293.406 279.157C293.633 279.005 293.899 278.925 294.172 278.925C294.445 278.925 294.711 279.005 294.938 279.157C295.242 279.362 295.452 279.678 295.523 280.037C295.594 280.397 295.52 280.77 295.317 281.074Z" fill="#EAEAEA"/>
</g>
<defs>
<clipPath id="clip0_1_183">
<rect width="558" height="424" fill="white"/>
</clipPath>
</defs>
</svg>
