<svg width="1280" height="832" viewBox="0 0 1280 832" fill="none" xmlns="http://www.w3.org/2000/svg">
<rect width="1280" height="832" fill="#252A34"/>
<rect width="1280" height="70" fill="#252A34"/>
<path d="M47.2045 42.8H35.0445L32.8045 49H28.9645L39.0445 21.28H43.2445L53.2845 49H49.4445L47.2045 42.8ZM46.1645 39.84L41.1245 25.76L36.0845 39.84H46.1645ZM68.3577 26.68C71.0243 26.68 73.1843 27.4933 74.8377 29.12C76.491 30.72 77.3177 33.04 77.3177 36.08V49H73.7177V36.6C73.7177 34.4133 73.171 32.7467 72.0777 31.6C70.9843 30.4267 69.491 29.84 67.5977 29.84C65.6777 29.84 64.1443 30.44 62.9977 31.64C61.8777 32.84 61.3177 34.5867 61.3177 36.88V49H57.6777V27.08H61.3177V30.2C62.0377 29.08 63.011 28.2133 64.2377 27.6C65.491 26.9867 66.8643 26.68 68.3577 26.68ZM87.7036 30.08V43C87.7036 44.0667 87.9303 44.8267 88.3836 45.28C88.8369 45.7067 89.6236 45.92 90.7436 45.92H93.4236V49H90.1436C88.1169 49 86.5969 48.5333 85.5836 47.6C84.5703 46.6667 84.0636 45.1333 84.0636 43V30.08H81.2236V27.08H84.0636V21.56H87.7036V27.08H93.4236V30.08H87.7036ZM107.394 49.36C105.341 49.36 103.474 48.8933 101.794 47.96C100.141 47.0267 98.8339 45.7067 97.8739 44C96.9406 42.2667 96.4739 40.2667 96.4739 38C96.4739 35.76 96.9539 33.7867 97.9139 32.08C98.9006 30.3467 100.234 29.0267 101.914 28.12C103.594 27.1867 105.474 26.72 107.554 26.72C109.634 26.72 111.514 27.1867 113.194 28.12C114.874 29.0267 116.194 30.3333 117.154 32.04C118.141 33.7467 118.634 35.7333 118.634 38C118.634 40.2667 118.127 42.2667 117.114 44C116.127 45.7067 114.781 47.0267 113.074 47.96C111.367 48.8933 109.474 49.36 107.394 49.36ZM107.394 46.16C108.701 46.16 109.927 45.8533 111.074 45.24C112.221 44.6267 113.141 43.7067 113.834 42.48C114.554 41.2533 114.914 39.76 114.914 38C114.914 36.24 114.567 34.7467 113.874 33.52C113.181 32.2933 112.274 31.3867 111.154 30.8C110.034 30.1867 108.821 29.88 107.514 29.88C106.181 29.88 104.954 30.1867 103.834 30.8C102.741 31.3867 101.861 32.2933 101.194 33.52C100.527 34.7467 100.194 36.24 100.194 38C100.194 39.7867 100.514 41.2933 101.154 42.52C101.821 43.7467 102.701 44.6667 103.794 45.28C104.887 45.8667 106.087 46.16 107.394 46.16ZM127.06 19.4V49H123.42V19.4H127.06ZM152.608 21.12C155.648 21.12 158.274 21.6933 160.488 22.84C162.728 23.96 164.434 25.5733 165.608 27.68C166.808 29.7867 167.408 32.2667 167.408 35.12C167.408 37.9733 166.808 40.4533 165.608 42.56C164.434 44.64 162.728 46.24 160.488 47.36C158.274 48.4533 155.648 49 152.608 49H143.928V21.12H152.608ZM152.608 46C156.208 46 158.954 45.0533 160.848 43.16C162.741 41.24 163.688 38.56 163.688 35.12C163.688 31.6533 162.728 28.9467 160.808 27C158.914 25.0533 156.181 24.08 152.608 24.08H147.568V46H152.608ZM192.209 37.2C192.209 37.8933 192.169 38.6267 192.089 39.4H174.569C174.702 41.56 175.436 43.2533 176.769 44.48C178.129 45.68 179.769 46.28 181.689 46.28C183.262 46.28 184.569 45.92 185.609 45.2C186.676 44.4533 187.422 43.4667 187.849 42.24H191.769C191.182 44.3467 190.009 46.0667 188.249 47.4C186.489 48.7067 184.302 49.36 181.689 49.36C179.609 49.36 177.742 48.8933 176.089 47.96C174.462 47.0267 173.182 45.7067 172.249 44C171.316 42.2667 170.849 40.2667 170.849 38C170.849 35.7333 171.302 33.7467 172.209 32.04C173.116 30.3333 174.382 29.0267 176.009 28.12C177.662 27.1867 179.556 26.72 181.689 26.72C183.769 26.72 185.609 27.1733 187.209 28.08C188.809 28.9867 190.036 30.24 190.889 31.84C191.769 33.4133 192.209 35.2 192.209 37.2ZM188.449 36.44C188.449 35.0533 188.142 33.8667 187.529 32.88C186.916 31.8667 186.076 31.1067 185.009 30.6C183.969 30.0667 182.809 29.8 181.529 29.8C179.689 29.8 178.116 30.3867 176.809 31.56C175.529 32.7333 174.796 34.36 174.609 36.44H188.449ZM205.174 45.64L211.974 27.08H215.854L207.254 49H203.014L194.414 27.08H198.334L205.174 45.64Z" fill="#FFD369"/>
<path d="M868.755 28.06V42H866.935V35.68H859.835V42H858.015V28.06H859.835V34.18H866.935V28.06H868.755ZM878.182 42.14C876.889 42.14 875.709 41.84 874.642 41.24C873.576 40.6267 872.729 39.78 872.102 38.7C871.489 37.6067 871.182 36.38 871.182 35.02C871.182 33.66 871.489 32.44 872.102 31.36C872.729 30.2667 873.576 29.42 874.642 28.82C875.709 28.2067 876.889 27.9 878.182 27.9C879.489 27.9 880.676 28.2067 881.742 28.82C882.809 29.42 883.649 30.26 884.262 31.34C884.876 32.42 885.182 33.6467 885.182 35.02C885.182 36.3933 884.876 37.62 884.262 38.7C883.649 39.78 882.809 40.6267 881.742 41.24C880.676 41.84 879.489 42.14 878.182 42.14ZM878.182 40.56C879.156 40.56 880.029 40.3333 880.802 39.88C881.589 39.4267 882.202 38.78 882.642 37.94C883.096 37.1 883.322 36.1267 883.322 35.02C883.322 33.9 883.096 32.9267 882.642 32.1C882.202 31.26 881.596 30.6133 880.822 30.16C880.049 29.7067 879.169 29.48 878.182 29.48C877.196 29.48 876.316 29.7067 875.542 30.16C874.769 30.6133 874.156 31.26 873.702 32.1C873.262 32.9267 873.042 33.9 873.042 35.02C873.042 36.1267 873.262 37.1 873.702 37.94C874.156 38.78 874.769 39.4267 875.542 39.88C876.329 40.3333 877.209 40.56 878.182 40.56ZM901.725 28.16V42H899.905V31.68L895.305 42H894.025L889.405 31.66V42H887.585V28.16H889.545L894.665 39.6L899.785 28.16H901.725ZM906.631 29.54V34.2H911.711V35.7H906.631V40.5H912.311V42H904.811V28.04H912.311V29.54H906.631Z" fill="#FFD369"/>
<path d="M1008.5 35.02C1008.5 33.66 1008.81 32.44 1009.42 31.36C1010.03 30.2667 1010.87 29.4133 1011.92 28.8C1012.99 28.1867 1014.17 27.88 1015.46 27.88C1016.98 27.88 1018.31 28.2467 1019.44 28.98C1020.57 29.7133 1021.4 30.7533 1021.92 32.1H1019.74C1019.35 31.26 1018.79 30.6133 1018.06 30.16C1017.34 29.7067 1016.47 29.48 1015.46 29.48C1014.49 29.48 1013.61 29.7067 1012.84 30.16C1012.07 30.6133 1011.46 31.26 1011.02 32.1C1010.58 32.9267 1010.36 33.9 1010.36 35.02C1010.36 36.1267 1010.58 37.1 1011.02 37.94C1011.46 38.7667 1012.07 39.4067 1012.84 39.86C1013.61 40.3133 1014.49 40.54 1015.46 40.54C1016.47 40.54 1017.34 40.32 1018.06 39.88C1018.79 39.4267 1019.35 38.78 1019.74 37.94H1021.92C1021.4 39.2733 1020.57 40.3067 1019.44 41.04C1018.31 41.76 1016.98 42.12 1015.46 42.12C1014.17 42.12 1012.99 41.82 1011.92 41.22C1010.87 40.6067 1010.03 39.76 1009.42 38.68C1008.81 37.6 1008.5 36.38 1008.5 35.02ZM1026.45 29.54V34.2H1031.53V35.7H1026.45V40.5H1032.13V42H1024.63V28.04H1032.13V29.54H1026.45ZM1045.84 42H1044.02L1036.7 30.9V42H1034.88V28.04H1036.7L1044.02 39.12V28.04H1045.84V42ZM1059.9 42H1058.08L1050.76 30.9V42H1048.94V28.04H1050.76L1058.08 39.12V28.04H1059.9V42ZM1064.83 28.06V42H1063.01V28.06H1064.83ZM1075.49 42L1069.75 35.64V42H1067.93V28.06H1069.75V34.52L1075.51 28.06H1077.81L1071.49 35.04L1077.87 42H1075.49Z" fill="white"/>
<path d="M1165.68 42L1159.94 35.64V42H1158.12V28.06H1159.94V34.52L1165.7 28.06H1168L1161.68 35.04L1168.06 42H1165.68ZM1176.41 42.14C1175.12 42.14 1173.94 41.84 1172.87 41.24C1171.8 40.6267 1170.96 39.78 1170.33 38.7C1169.72 37.6067 1169.41 36.38 1169.41 35.02C1169.41 33.66 1169.72 32.44 1170.33 31.36C1170.96 30.2667 1171.8 29.42 1172.87 28.82C1173.94 28.2067 1175.12 27.9 1176.41 27.9C1177.72 27.9 1178.9 28.2067 1179.97 28.82C1181.04 29.42 1181.88 30.26 1182.49 31.34C1183.1 32.42 1183.41 33.6467 1183.41 35.02C1183.41 36.3933 1183.1 37.62 1182.49 38.7C1181.88 39.78 1181.04 40.6267 1179.97 41.24C1178.9 41.84 1177.72 42.14 1176.41 42.14ZM1176.41 40.56C1177.38 40.56 1178.26 40.3333 1179.03 39.88C1179.82 39.4267 1180.43 38.78 1180.87 37.94C1181.32 37.1 1181.55 36.1267 1181.55 35.02C1181.55 33.9 1181.32 32.9267 1180.87 32.1C1180.43 31.26 1179.82 30.6133 1179.05 30.16C1178.28 29.7067 1177.4 29.48 1176.41 29.48C1175.42 29.48 1174.54 29.7067 1173.77 30.16C1173 30.6133 1172.38 31.26 1171.93 32.1C1171.49 32.9267 1171.27 33.9 1171.27 35.02C1171.27 36.1267 1171.49 37.1 1171.93 37.94C1172.38 38.78 1173 39.4267 1173.77 39.88C1174.56 40.3333 1175.44 40.56 1176.41 40.56ZM1196.77 42H1194.95L1187.63 30.9V42H1185.81V28.04H1187.63L1194.95 39.12V28.04H1196.77V42ZM1208.45 28.06V29.54H1204.65V42H1202.83V29.54H1199.01V28.06H1208.45ZM1218.93 38.9H1212.85L1211.73 42H1209.81L1214.85 28.14H1216.95L1221.97 42H1220.05L1218.93 38.9ZM1218.41 37.42L1215.89 30.38L1213.37 37.42H1218.41ZM1231.73 42L1225.99 35.64V42H1224.17V28.06H1225.99V34.52L1231.75 28.06H1234.05L1227.73 35.04L1234.11 42H1231.73ZM1244.72 28.06V29.54H1240.92V42H1239.1V29.54H1235.28V28.06H1244.72Z" fill="white"/>
<path d="M260.549 273.472C260.549 269.035 261.51 265.088 263.43 261.632C265.35 258.133 268.016 255.424 271.43 253.504C274.886 251.541 278.79 250.56 283.142 250.56C288.475 250.56 293.04 251.968 296.838 254.784C300.635 257.6 303.174 261.44 304.454 266.304H292.422C291.526 264.427 290.246 262.997 288.582 262.016C286.96 261.035 285.104 260.544 283.014 260.544C279.643 260.544 276.912 261.717 274.822 264.064C272.731 266.411 271.686 269.547 271.686 273.472C271.686 277.397 272.731 280.533 274.822 282.88C276.912 285.227 279.643 286.4 283.014 286.4C285.104 286.4 286.96 285.909 288.582 284.928C290.246 283.947 291.526 282.517 292.422 280.64H304.454C303.174 285.504 300.635 289.344 296.838 292.16C293.04 294.933 288.475 296.32 283.142 296.32C278.79 296.32 274.886 295.36 271.43 293.44C268.016 291.477 265.35 288.768 263.43 285.312C261.51 281.856 260.549 277.909 260.549 273.472ZM321.396 286.976H336.884V296H309.172V287.296L324.02 269.312H309.299V260.288H336.564V268.992L321.396 286.976ZM376.569 277.568C376.569 278.592 376.506 279.659 376.378 280.768H351.61C351.78 282.987 352.484 284.693 353.722 285.888C355.002 287.04 356.559 287.616 358.394 287.616C361.124 287.616 363.023 286.464 364.09 284.16H375.738C375.14 286.507 374.052 288.619 372.474 290.496C370.938 292.373 368.996 293.845 366.65 294.912C364.303 295.979 361.679 296.512 358.778 296.512C355.279 296.512 352.164 295.765 349.434 294.272C346.703 292.779 344.57 290.645 343.034 287.872C341.498 285.099 340.73 281.856 340.73 278.144C340.73 274.432 341.476 271.189 342.97 268.416C344.506 265.643 346.639 263.509 349.37 262.016C352.1 260.523 355.236 259.776 358.778 259.776C362.234 259.776 365.306 260.501 367.994 261.952C370.682 263.403 372.772 265.472 374.266 268.16C375.802 270.848 376.569 273.984 376.569 277.568ZM365.37 274.688C365.37 272.811 364.73 271.317 363.45 270.208C362.17 269.099 360.57 268.544 358.65 268.544C356.815 268.544 355.258 269.077 353.978 270.144C352.74 271.211 351.972 272.725 351.674 274.688H365.37ZM396.871 296.512C393.756 296.512 390.983 295.979 388.551 294.912C386.119 293.845 384.199 292.395 382.791 290.56C381.383 288.683 380.594 286.592 380.423 284.288H391.239C391.367 285.525 391.943 286.528 392.967 287.296C393.991 288.064 395.25 288.448 396.743 288.448C398.108 288.448 399.154 288.192 399.879 287.68C400.647 287.125 401.031 286.421 401.031 285.568C401.031 284.544 400.498 283.797 399.431 283.328C398.364 282.816 396.636 282.261 394.247 281.664C391.687 281.067 389.554 280.448 387.847 279.808C386.14 279.125 384.668 278.08 383.431 276.672C382.194 275.221 381.575 273.28 381.575 270.848C381.575 268.8 382.13 266.944 383.239 265.28C384.391 263.573 386.055 262.229 388.231 261.248C390.45 260.267 393.074 259.776 396.103 259.776C400.583 259.776 404.103 260.885 406.663 263.104C409.266 265.323 410.759 268.267 411.143 271.936H401.031C400.86 270.699 400.306 269.717 399.367 268.992C398.471 268.267 397.276 267.904 395.783 267.904C394.503 267.904 393.522 268.16 392.839 268.672C392.156 269.141 391.815 269.803 391.815 270.656C391.815 271.68 392.348 272.448 393.415 272.96C394.524 273.472 396.231 273.984 398.535 274.496C401.18 275.179 403.335 275.861 404.999 276.544C406.663 277.184 408.114 278.251 409.351 279.744C410.631 281.195 411.292 283.157 411.335 285.632C411.335 287.723 410.738 289.6 409.543 291.264C408.391 292.885 406.706 294.165 404.487 295.104C402.311 296.043 399.772 296.512 396.871 296.512ZM404.039 251.136L388.615 257.6V250.048L404.039 242.624V251.136ZM415.855 278.144C415.855 274.432 416.601 271.189 418.095 268.416C419.631 265.643 421.743 263.509 424.431 262.016C427.161 260.523 430.276 259.776 433.775 259.776C438.255 259.776 441.988 260.949 444.975 263.296C448.004 265.643 449.988 268.949 450.927 273.216H439.279C438.297 270.485 436.399 269.12 433.583 269.12C431.577 269.12 429.977 269.909 428.783 271.488C427.588 273.024 426.991 275.243 426.991 278.144C426.991 281.045 427.588 283.285 428.783 284.864C429.977 286.4 431.577 287.168 433.583 287.168C436.399 287.168 438.297 285.803 439.279 283.072H450.927C449.988 287.253 448.004 290.539 444.975 292.928C441.945 295.317 438.212 296.512 433.775 296.512C430.276 296.512 427.161 295.765 424.431 294.272C421.743 292.779 419.631 290.645 418.095 287.872C416.601 285.099 415.855 281.856 415.855 278.144ZM440.687 251.392L425.263 257.856V250.304L440.687 242.88V251.392ZM475.783 256.576C473.863 256.576 472.284 256.021 471.047 254.912C469.852 253.76 469.255 252.352 469.255 250.688C469.255 248.981 469.852 247.573 471.047 246.464C472.284 245.312 473.863 244.736 475.783 244.736C477.66 244.736 479.196 245.312 480.391 246.464C481.628 247.573 482.247 248.981 482.247 250.688C482.247 252.352 481.628 253.76 480.391 254.912C479.196 256.021 477.66 256.576 475.783 256.576ZM481.287 300.608C481.287 305.003 480.178 308.16 477.959 310.08C475.74 312.043 472.647 313.024 468.679 313.024H464.391V303.744H467.015C468.21 303.744 469.063 303.509 469.575 303.04C470.087 302.571 470.343 301.803 470.343 300.736V260.288H481.287V300.608ZM522.819 277.568C522.819 278.592 522.756 279.659 522.628 280.768H497.86C498.03 282.987 498.734 284.693 499.972 285.888C501.252 287.04 502.809 287.616 504.644 287.616C507.374 287.616 509.273 286.464 510.34 284.16H521.988C521.39 286.507 520.302 288.619 518.724 290.496C517.188 292.373 515.246 293.845 512.9 294.912C510.553 295.979 507.929 296.512 505.028 296.512C501.529 296.512 498.414 295.765 495.684 294.272C492.953 292.779 490.82 290.645 489.284 287.872C487.748 285.099 486.98 281.856 486.98 278.144C486.98 274.432 487.726 271.189 489.22 268.416C490.756 265.643 492.889 263.509 495.62 262.016C498.35 260.523 501.486 259.776 505.028 259.776C508.484 259.776 511.556 260.501 514.244 261.952C516.932 263.403 519.022 265.472 520.516 268.16C522.052 270.848 522.819 273.984 522.819 277.568ZM511.62 274.688C511.62 272.811 510.98 271.317 509.7 270.208C508.42 269.099 506.82 268.544 504.9 268.544C503.065 268.544 501.508 269.077 500.228 270.144C498.99 271.211 498.222 272.725 497.924 274.688H511.62ZM543.121 296.512C540.006 296.512 537.233 295.979 534.801 294.912C532.369 293.845 530.449 292.395 529.041 290.56C527.633 288.683 526.844 286.592 526.673 284.288H537.489C537.617 285.525 538.193 286.528 539.217 287.296C540.241 288.064 541.5 288.448 542.993 288.448C544.358 288.448 545.404 288.192 546.129 287.68C546.897 287.125 547.281 286.421 547.281 285.568C547.281 284.544 546.748 283.797 545.681 283.328C544.614 282.816 542.886 282.261 540.497 281.664C537.937 281.067 535.804 280.448 534.097 279.808C532.39 279.125 530.918 278.08 529.681 276.672C528.444 275.221 527.825 273.28 527.825 270.848C527.825 268.8 528.38 266.944 529.489 265.28C530.641 263.573 532.305 262.229 534.481 261.248C536.7 260.267 539.324 259.776 542.353 259.776C546.833 259.776 550.353 260.885 552.913 263.104C555.516 265.323 557.009 268.267 557.393 271.936H547.281C547.11 270.699 546.556 269.717 545.617 268.992C544.721 268.267 543.526 267.904 542.033 267.904C540.753 267.904 539.772 268.16 539.089 268.672C538.406 269.141 538.065 269.803 538.065 270.656C538.065 271.68 538.598 272.448 539.665 272.96C540.774 273.472 542.481 273.984 544.785 274.496C547.43 275.179 549.585 275.861 551.249 276.544C552.913 277.184 554.364 278.251 555.601 279.744C556.881 281.195 557.542 283.157 557.585 285.632C557.585 287.723 556.988 289.6 555.793 291.264C554.641 292.885 552.956 294.165 550.737 295.104C548.561 296.043 546.022 296.512 543.121 296.512ZM584.185 286.72V296H578.617C574.649 296 571.555 295.04 569.337 293.12C567.118 291.157 566.009 287.979 566.009 283.584V269.376H561.657V260.288H566.009V251.584H576.953V260.288H584.121V269.376H576.953V283.712C576.953 284.779 577.209 285.547 577.721 286.016C578.233 286.485 579.086 286.72 580.281 286.72H584.185ZM623.944 277.568C623.944 278.592 623.881 279.659 623.753 280.768H598.985C599.155 282.987 599.859 284.693 601.097 285.888C602.377 287.04 603.934 287.616 605.769 287.616C608.499 287.616 610.398 286.464 611.465 284.16H623.113C622.515 286.507 621.427 288.619 619.849 290.496C618.313 292.373 616.371 293.845 614.025 294.912C611.678 295.979 609.054 296.512 606.153 296.512C602.654 296.512 599.539 295.765 596.809 294.272C594.078 292.779 591.945 290.645 590.409 287.872C588.873 285.099 588.105 281.856 588.105 278.144C588.105 274.432 588.851 271.189 590.345 268.416C591.881 265.643 594.014 263.509 596.745 262.016C599.475 260.523 602.611 259.776 606.153 259.776C609.609 259.776 612.681 260.501 615.369 261.952C618.057 263.403 620.147 265.472 621.641 268.16C623.177 270.848 623.944 273.984 623.944 277.568ZM612.745 274.688C612.745 272.811 612.105 271.317 610.825 270.208C609.545 269.099 607.945 268.544 606.025 268.544C604.19 268.544 602.633 269.077 601.353 270.144C600.115 271.211 599.347 272.725 599.049 274.688H612.745ZM675.286 259.904C679.723 259.904 683.243 261.248 685.846 263.936C688.491 266.624 689.814 270.357 689.814 275.136V296H678.934V276.608C678.934 274.304 678.315 272.533 677.078 271.296C675.883 270.016 674.219 269.376 672.086 269.376C669.953 269.376 668.267 270.016 667.03 271.296C665.835 272.533 665.238 274.304 665.238 276.608V296H654.358V276.608C654.358 274.304 653.739 272.533 652.502 271.296C651.307 270.016 649.643 269.376 647.51 269.376C645.377 269.376 643.691 270.016 642.454 271.296C641.259 272.533 640.662 274.304 640.662 276.608V296H629.718V260.288H640.662V264.768C641.771 263.275 643.222 262.101 645.014 261.248C646.806 260.352 648.833 259.904 651.094 259.904C653.782 259.904 656.171 260.48 658.262 261.632C660.395 262.784 662.059 264.427 663.254 266.56C664.491 264.597 666.177 262.997 668.31 261.76C670.443 260.523 672.769 259.904 675.286 259.904Z" fill="white"/>
<path d="M738.999 288.064H722.231L719.543 296H708.087L724.343 251.072H737.015L753.271 296H741.687L738.999 288.064ZM736.183 279.616L730.615 263.168L725.111 279.616H736.183ZM779.978 259.904C784.159 259.904 787.487 261.269 789.962 264C792.479 266.688 793.738 270.4 793.738 275.136V296H782.858V276.608C782.858 274.219 782.239 272.363 781.002 271.04C779.765 269.717 778.101 269.056 776.01 269.056C773.919 269.056 772.255 269.717 771.018 271.04C769.781 272.363 769.162 274.219 769.162 276.608V296H758.218V260.288H769.162V265.024C770.271 263.445 771.765 262.208 773.642 261.312C775.519 260.373 777.631 259.904 779.978 259.904ZM821.247 286.72V296H815.679C811.711 296 808.618 295.04 806.399 293.12C804.18 291.157 803.071 287.979 803.071 283.584V269.376H798.719V260.288H803.071V251.584H814.015V260.288H821.183V269.376H814.015V283.712C814.015 284.779 814.271 285.547 814.783 286.016C815.295 286.485 816.148 286.72 817.343 286.72H821.247ZM843.599 296.512C840.1 296.512 836.943 295.765 834.127 294.272C831.354 292.779 829.156 290.645 827.535 287.872C825.956 285.099 825.167 281.856 825.167 278.144C825.167 274.475 825.978 271.253 827.599 268.48C829.22 265.664 831.439 263.509 834.255 262.016C837.071 260.523 840.228 259.776 843.727 259.776C847.226 259.776 850.383 260.523 853.199 262.016C856.015 263.509 858.234 265.664 859.855 268.48C861.476 271.253 862.287 274.475 862.287 278.144C862.287 281.813 861.455 285.056 859.791 287.872C858.17 290.645 855.93 292.779 853.071 294.272C850.255 295.765 847.098 296.512 843.599 296.512ZM843.599 287.04C845.69 287.04 847.46 286.272 848.911 284.736C850.404 283.2 851.151 281.003 851.151 278.144C851.151 275.285 850.426 273.088 848.975 271.552C847.567 270.016 845.818 269.248 843.727 269.248C841.594 269.248 839.823 270.016 838.415 271.552C837.007 273.045 836.303 275.243 836.303 278.144C836.303 281.003 836.986 283.2 838.351 284.736C839.759 286.272 841.508 287.04 843.599 287.04ZM879.037 248.64V296H868.093V248.64H879.037ZM917.363 251.072C922.099 251.072 926.237 252.011 929.779 253.888C933.32 255.765 936.051 258.411 937.971 261.824C939.933 265.195 940.915 269.099 940.915 273.536C940.915 277.931 939.933 281.835 937.971 285.248C936.051 288.661 933.299 291.307 929.715 293.184C926.173 295.061 922.056 296 917.363 296H900.531V251.072H917.363ZM916.659 286.528C920.797 286.528 924.019 285.397 926.323 283.136C928.627 280.875 929.779 277.675 929.779 273.536C929.779 269.397 928.627 266.176 926.323 263.872C924.019 261.568 920.797 260.416 916.659 260.416H911.475V286.528H916.659ZM980.694 277.568C980.694 278.592 980.631 279.659 980.503 280.768H955.735C955.905 282.987 956.609 284.693 957.847 285.888C959.127 287.04 960.684 287.616 962.519 287.616C965.249 287.616 967.148 286.464 968.215 284.16H979.863C979.265 286.507 978.177 288.619 976.599 290.496C975.063 292.373 973.121 293.845 970.775 294.912C968.428 295.979 965.804 296.512 962.903 296.512C959.404 296.512 956.289 295.765 953.559 294.272C950.828 292.779 948.695 290.645 947.159 287.872C945.623 285.099 944.855 281.856 944.855 278.144C944.855 274.432 945.601 271.189 947.095 268.416C948.631 265.643 950.764 263.509 953.495 262.016C956.225 260.523 959.361 259.776 962.903 259.776C966.359 259.776 969.431 260.501 972.119 261.952C974.807 263.403 976.897 265.472 978.391 268.16C979.927 270.848 980.694 273.984 980.694 277.568ZM969.495 274.688C969.495 272.811 968.855 271.317 967.575 270.208C966.295 269.099 964.695 268.544 962.775 268.544C960.94 268.544 959.383 269.077 958.103 270.144C956.865 271.211 956.097 272.725 955.799 274.688H969.495ZM1002.53 285.76L1010.28 260.288H1021.92L1009.25 296H995.748L983.076 260.288H994.788L1002.53 285.76Z" fill="#FFD369"/>
<path d="M456.979 382.304V405.248C456.979 408.8 455.971 411.536 453.955 413.456C451.971 415.376 449.283 416.336 445.891 416.336C442.339 416.336 439.491 415.328 437.347 413.312C435.203 411.296 434.131 408.432 434.131 404.72H442.291C442.291 406.128 442.579 407.2 443.155 407.936C443.731 408.64 444.563 408.992 445.651 408.992C446.643 408.992 447.411 408.672 447.955 408.032C448.499 407.392 448.771 406.464 448.771 405.248V382.304H456.979ZM488.857 402.176C488.857 402.944 488.809 403.744 488.713 404.576H470.137C470.265 406.24 470.793 407.52 471.721 408.416C472.681 409.28 473.849 409.712 475.225 409.712C477.273 409.712 478.697 408.848 479.497 407.12H488.233C487.785 408.88 486.969 410.464 485.785 411.872C484.633 413.28 483.177 414.384 481.417 415.184C479.657 415.984 477.689 416.384 475.513 416.384C472.889 416.384 470.553 415.824 468.505 414.704C466.457 413.584 464.857 411.984 463.705 409.904C462.553 407.824 461.977 405.392 461.977 402.608C461.977 399.824 462.537 397.392 463.657 395.312C464.809 393.232 466.409 391.632 468.457 390.512C470.505 389.392 472.857 388.832 475.513 388.832C478.105 388.832 480.409 389.376 482.425 390.464C484.441 391.552 486.009 393.104 487.129 395.12C488.281 397.136 488.857 399.488 488.857 402.176ZM480.457 400.016C480.457 398.608 479.977 397.488 479.017 396.656C478.057 395.824 476.857 395.408 475.417 395.408C474.041 395.408 472.873 395.808 471.913 396.608C470.985 397.408 470.409 398.544 470.185 400.016H480.457ZM504.083 416.384C501.747 416.384 499.667 415.984 497.843 415.184C496.019 414.384 494.579 413.296 493.523 411.92C492.467 410.512 491.875 408.944 491.747 407.216H499.859C499.955 408.144 500.387 408.896 501.155 409.472C501.923 410.048 502.867 410.336 503.987 410.336C505.011 410.336 505.795 410.144 506.339 409.76C506.915 409.344 507.203 408.816 507.203 408.176C507.203 407.408 506.803 406.848 506.003 406.496C505.203 406.112 503.907 405.696 502.115 405.248C500.195 404.8 498.595 404.336 497.315 403.856C496.035 403.344 494.931 402.56 494.003 401.504C493.075 400.416 492.611 398.96 492.611 397.136C492.611 395.6 493.027 394.208 493.859 392.96C494.723 391.68 495.971 390.672 497.603 389.936C499.267 389.2 501.235 388.832 503.507 388.832C506.867 388.832 509.507 389.664 511.427 391.328C513.379 392.992 514.499 395.2 514.787 397.952H507.203C507.075 397.024 506.659 396.288 505.955 395.744C505.283 395.2 504.387 394.928 503.267 394.928C502.307 394.928 501.571 395.12 501.059 395.504C500.547 395.856 500.291 396.352 500.291 396.992C500.291 397.76 500.691 398.336 501.491 398.72C502.323 399.104 503.603 399.488 505.331 399.872C507.315 400.384 508.931 400.896 510.179 401.408C511.427 401.888 512.515 402.688 513.443 403.808C514.403 404.896 514.899 406.368 514.931 408.224C514.931 409.792 514.483 411.2 513.587 412.448C512.723 413.664 511.459 414.624 509.795 415.328C508.163 416.032 506.259 416.384 504.083 416.384ZM534.881 409.04V416H530.705C527.729 416 525.409 415.28 523.745 413.84C522.081 412.368 521.249 409.984 521.249 406.688V396.032H517.985V389.216H521.249V382.688H529.457V389.216H534.833V396.032H529.457V406.784C529.457 407.584 529.649 408.16 530.033 408.512C530.417 408.864 531.057 409.04 531.953 409.04H534.881ZM564.701 402.176C564.701 402.944 564.653 403.744 564.557 404.576H545.981C546.109 406.24 546.637 407.52 547.565 408.416C548.525 409.28 549.693 409.712 551.069 409.712C553.117 409.712 554.541 408.848 555.341 407.12H564.077C563.629 408.88 562.813 410.464 561.629 411.872C560.477 413.28 559.021 414.384 557.261 415.184C555.501 415.984 553.533 416.384 551.357 416.384C548.733 416.384 546.397 415.824 544.349 414.704C542.301 413.584 540.701 411.984 539.549 409.904C538.397 407.824 537.821 405.392 537.821 402.608C537.821 399.824 538.381 397.392 539.501 395.312C540.653 393.232 542.253 391.632 544.301 390.512C546.349 389.392 548.701 388.832 551.357 388.832C553.949 388.832 556.253 389.376 558.269 390.464C560.285 391.552 561.853 393.104 562.973 395.12C564.125 397.136 564.701 399.488 564.701 402.176ZM556.301 400.016C556.301 398.608 555.821 397.488 554.861 396.656C553.901 395.824 552.701 395.408 551.261 395.408C549.885 395.408 548.717 395.808 547.757 396.608C546.829 397.408 546.253 398.544 546.029 400.016H556.301ZM603.207 388.928C606.535 388.928 609.175 389.936 611.127 391.952C613.111 393.968 614.103 396.768 614.103 400.352V416H605.943V401.456C605.943 399.728 605.479 398.4 604.551 397.472C603.655 396.512 602.407 396.032 600.807 396.032C599.207 396.032 597.943 396.512 597.015 397.472C596.119 398.4 595.671 399.728 595.671 401.456V416H587.511V401.456C587.511 399.728 587.047 398.4 586.119 397.472C585.223 396.512 583.975 396.032 582.375 396.032C580.775 396.032 579.511 396.512 578.583 397.472C577.687 398.4 577.239 399.728 577.239 401.456V416H569.031V389.216H577.239V392.576C578.071 391.456 579.159 390.576 580.503 389.936C581.847 389.264 583.367 388.928 585.063 388.928C587.079 388.928 588.871 389.36 590.439 390.224C592.039 391.088 593.287 392.32 594.183 393.92C595.111 392.448 596.375 391.248 597.975 390.32C599.575 389.392 601.319 388.928 603.207 388.928ZM651.951 382.304V388.88H638.223V395.984H648.495V402.368H638.223V416H630.015V382.304H651.951ZM664.473 393.68C665.433 392.208 666.633 391.056 668.073 390.224C669.513 389.36 671.113 388.928 672.873 388.928V397.616H670.617C668.569 397.616 667.033 398.064 666.009 398.96C664.985 399.824 664.473 401.36 664.473 403.568V416H656.265V389.216H664.473V393.68ZM688.988 416.384C686.364 416.384 683.996 415.824 681.884 414.704C679.804 413.584 678.156 411.984 676.94 409.904C675.756 407.824 675.164 405.392 675.164 402.608C675.164 399.856 675.772 397.44 676.988 395.36C678.204 393.248 679.868 391.632 681.98 390.512C684.092 389.392 686.46 388.832 689.084 388.832C691.708 388.832 694.076 389.392 696.188 390.512C698.3 391.632 699.964 393.248 701.18 395.36C702.396 397.44 703.004 399.856 703.004 402.608C703.004 405.36 702.38 407.792 701.132 409.904C699.916 411.984 698.236 413.584 696.092 414.704C693.98 415.824 691.612 416.384 688.988 416.384ZM688.988 409.28C690.556 409.28 691.884 408.704 692.972 407.552C694.092 406.4 694.652 404.752 694.652 402.608C694.652 400.464 694.108 398.816 693.02 397.664C691.964 396.512 690.652 395.936 689.084 395.936C687.484 395.936 686.156 396.512 685.1 397.664C684.044 398.784 683.516 400.432 683.516 402.608C683.516 404.752 684.028 406.4 685.052 407.552C686.108 408.704 687.42 409.28 688.988 409.28ZM723.679 388.928C726.815 388.928 729.311 389.952 731.167 392C733.055 394.016 733.999 396.8 733.999 400.352V416H725.839V401.456C725.839 399.664 725.375 398.272 724.447 397.28C723.519 396.288 722.271 395.792 720.703 395.792C719.135 395.792 717.887 396.288 716.959 397.28C716.031 398.272 715.567 399.664 715.567 401.456V416H707.359V389.216H715.567V392.768C716.399 391.584 717.519 390.656 718.927 389.984C720.335 389.28 721.919 388.928 723.679 388.928ZM754.631 409.04V416H750.455C747.479 416 745.159 415.28 743.495 413.84C741.831 412.368 740.999 409.984 740.999 406.688V396.032H737.735V389.216H740.999V382.688H749.207V389.216H754.583V396.032H749.207V406.784C749.207 407.584 749.399 408.16 749.783 408.512C750.167 408.864 750.807 409.04 751.703 409.04H754.631ZM767.411 388.88V395.696H778.403V402.032H767.411V409.424H779.843V416H759.203V382.304H779.843V388.88H767.411ZM801.491 388.928C804.627 388.928 807.123 389.952 808.979 392C810.867 394.016 811.811 396.8 811.811 400.352V416H803.651V401.456C803.651 399.664 803.187 398.272 802.259 397.28C801.331 396.288 800.083 395.792 798.515 395.792C796.947 395.792 795.699 396.288 794.771 397.28C793.843 398.272 793.379 399.664 793.379 401.456V416H785.171V389.216H793.379V392.768C794.211 391.584 795.331 390.656 796.739 389.984C798.147 389.28 799.731 388.928 801.491 388.928ZM815.883 402.56C815.883 399.808 816.395 397.392 817.419 395.312C818.475 393.232 819.899 391.632 821.691 390.512C823.483 389.392 825.483 388.832 827.691 388.832C829.451 388.832 831.051 389.2 832.491 389.936C833.963 390.672 835.115 391.664 835.947 392.912V380.48H844.155V416H835.947V412.16C835.179 413.44 834.075 414.464 832.635 415.232C831.227 416 829.579 416.384 827.691 416.384C825.483 416.384 823.483 415.824 821.691 414.704C819.899 413.552 818.475 411.936 817.419 409.856C816.395 407.744 815.883 405.312 815.883 402.56ZM835.947 402.608C835.947 400.56 835.371 398.944 834.219 397.76C833.099 396.576 831.723 395.984 830.091 395.984C828.459 395.984 827.067 396.576 825.915 397.76C824.795 398.912 824.235 400.512 824.235 402.56C824.235 404.608 824.795 406.24 825.915 407.456C827.067 408.64 828.459 409.232 830.091 409.232C831.723 409.232 833.099 408.64 834.219 407.456C835.371 406.272 835.947 404.656 835.947 402.608ZM483.897 454.304C487.449 454.304 490.553 455.008 493.209 456.416C495.865 457.824 497.913 459.808 499.353 462.368C500.825 464.896 501.561 467.824 501.561 471.152C501.561 474.448 500.825 477.376 499.353 479.936C497.913 482.496 495.849 484.48 493.161 485.888C490.505 487.296 487.417 488 483.897 488H471.273V454.304H483.897ZM483.369 480.896C486.473 480.896 488.889 480.048 490.617 478.352C492.345 476.656 493.209 474.256 493.209 471.152C493.209 468.048 492.345 465.632 490.617 463.904C488.889 462.176 486.473 461.312 483.369 461.312H479.481V480.896H483.369ZM531.396 474.176C531.396 474.944 531.348 475.744 531.252 476.576H512.676C512.804 478.24 513.332 479.52 514.26 480.416C515.22 481.28 516.388 481.712 517.764 481.712C519.812 481.712 521.236 480.848 522.036 479.12H530.772C530.324 480.88 529.508 482.464 528.324 483.872C527.172 485.28 525.716 486.384 523.956 487.184C522.196 487.984 520.228 488.384 518.052 488.384C515.428 488.384 513.092 487.824 511.044 486.704C508.996 485.584 507.396 483.984 506.244 481.904C505.092 479.824 504.516 477.392 504.516 474.608C504.516 471.824 505.076 469.392 506.196 467.312C507.348 465.232 508.948 463.632 510.996 462.512C513.044 461.392 515.396 460.832 518.052 460.832C520.644 460.832 522.948 461.376 524.964 462.464C526.98 463.552 528.548 465.104 529.668 467.12C530.82 469.136 531.396 471.488 531.396 474.176ZM522.996 472.016C522.996 470.608 522.516 469.488 521.556 468.656C520.596 467.824 519.396 467.408 517.956 467.408C516.58 467.408 515.412 467.808 514.452 468.608C513.524 469.408 512.948 470.544 512.724 472.016H522.996ZM574.174 461.216L566.926 488H557.854L553.63 470.624L549.262 488H540.238L532.942 461.216H541.15L544.942 480.368L549.454 461.216H558.142L562.702 480.272L566.446 461.216H574.174ZM602.552 474.176C602.552 474.944 602.504 475.744 602.408 476.576H583.832C583.96 478.24 584.488 479.52 585.416 480.416C586.376 481.28 587.544 481.712 588.92 481.712C590.968 481.712 592.392 480.848 593.192 479.12H601.928C601.48 480.88 600.664 482.464 599.48 483.872C598.328 485.28 596.872 486.384 595.112 487.184C593.352 487.984 591.384 488.384 589.208 488.384C586.584 488.384 584.248 487.824 582.2 486.704C580.152 485.584 578.552 483.984 577.4 481.904C576.248 479.824 575.672 477.392 575.672 474.608C575.672 471.824 576.232 469.392 577.352 467.312C578.504 465.232 580.104 463.632 582.152 462.512C584.2 461.392 586.552 460.832 589.208 460.832C591.8 460.832 594.104 461.376 596.12 462.464C598.136 463.552 599.704 465.104 600.824 467.12C601.976 469.136 602.552 471.488 602.552 474.176ZM594.152 472.016C594.152 470.608 593.672 469.488 592.712 468.656C591.752 467.824 590.552 467.408 589.112 467.408C587.736 467.408 586.568 467.808 585.608 468.608C584.68 469.408 584.104 470.544 583.88 472.016H594.152ZM615.09 452.48V488H606.882V452.48H615.09ZM633.231 488.384C630.607 488.384 628.239 487.824 626.127 486.704C624.047 485.584 622.399 483.984 621.183 481.904C619.999 479.824 619.407 477.392 619.407 474.608C619.407 471.856 620.015 469.44 621.23 467.36C622.447 465.248 624.111 463.632 626.223 462.512C628.335 461.392 630.703 460.832 633.327 460.832C635.951 460.832 638.319 461.392 640.431 462.512C642.543 463.632 644.207 465.248 645.423 467.36C646.639 469.44 647.247 471.856 647.247 474.608C647.247 477.36 646.623 479.792 645.375 481.904C644.159 483.984 642.479 485.584 640.335 486.704C638.223 487.824 635.855 488.384 633.231 488.384ZM633.231 481.28C634.799 481.28 636.127 480.704 637.215 479.552C638.335 478.4 638.895 476.752 638.895 474.608C638.895 472.464 638.351 470.816 637.263 469.664C636.207 468.512 634.895 467.936 633.327 467.936C631.727 467.936 630.399 468.512 629.343 469.664C628.287 470.784 627.759 472.432 627.759 474.608C627.759 476.752 628.271 478.4 629.295 479.552C630.351 480.704 631.663 481.28 633.231 481.28ZM659.809 465.008C660.609 463.76 661.713 462.752 663.121 461.984C664.529 461.216 666.177 460.832 668.065 460.832C670.273 460.832 672.273 461.392 674.065 462.512C675.857 463.632 677.265 465.232 678.289 467.312C679.345 469.392 679.873 471.808 679.873 474.56C679.873 477.312 679.345 479.744 678.289 481.856C677.265 483.936 675.857 485.552 674.065 486.704C672.273 487.824 670.273 488.384 668.065 488.384C666.209 488.384 664.561 488 663.121 487.232C661.713 486.464 660.609 485.472 659.809 484.256V500.768H651.601V461.216H659.809V465.008ZM671.521 474.56C671.521 472.512 670.945 470.912 669.793 469.76C668.673 468.576 667.281 467.984 665.617 467.984C663.985 467.984 662.593 468.576 661.441 469.76C660.321 470.944 659.761 472.56 659.761 474.608C659.761 476.656 660.321 478.272 661.441 479.456C662.593 480.64 663.985 481.232 665.617 481.232C667.249 481.232 668.641 480.64 669.793 479.456C670.945 478.24 671.521 476.608 671.521 474.56ZM709.427 474.176C709.427 474.944 709.379 475.744 709.283 476.576H690.707C690.835 478.24 691.363 479.52 692.291 480.416C693.251 481.28 694.419 481.712 695.795 481.712C697.843 481.712 699.267 480.848 700.067 479.12H708.803C708.355 480.88 707.539 482.464 706.355 483.872C705.203 485.28 703.747 486.384 701.987 487.184C700.227 487.984 698.259 488.384 696.083 488.384C693.459 488.384 691.123 487.824 689.075 486.704C687.027 485.584 685.427 483.984 684.275 481.904C683.123 479.824 682.547 477.392 682.547 474.608C682.547 471.824 683.107 469.392 684.227 467.312C685.379 465.232 686.979 463.632 689.027 462.512C691.075 461.392 693.427 460.832 696.083 460.832C698.675 460.832 700.979 461.376 702.995 462.464C705.011 463.552 706.579 465.104 707.699 467.12C708.851 469.136 709.427 471.488 709.427 474.176ZM701.027 472.016C701.027 470.608 700.547 469.488 699.587 468.656C698.627 467.824 697.427 467.408 695.987 467.408C694.611 467.408 693.443 467.808 692.483 468.608C691.555 469.408 690.979 470.544 690.755 472.016H701.027ZM721.965 465.68C722.925 464.208 724.125 463.056 725.565 462.224C727.005 461.36 728.605 460.928 730.365 460.928V469.616H728.109C726.061 469.616 724.525 470.064 723.501 470.96C722.477 471.824 721.965 473.36 721.965 475.568V488H713.757V461.216H721.965V465.68ZM759.536 474.176C759.536 474.944 759.489 475.744 759.393 476.576H740.817C740.945 478.24 741.473 479.52 742.401 480.416C743.361 481.28 744.529 481.712 745.905 481.712C747.953 481.712 749.377 480.848 750.177 479.12H758.913C758.465 480.88 757.649 482.464 756.465 483.872C755.313 485.28 753.857 486.384 752.097 487.184C750.337 487.984 748.369 488.384 746.193 488.384C743.569 488.384 741.233 487.824 739.185 486.704C737.137 485.584 735.537 483.984 734.385 481.904C733.233 479.824 732.657 477.392 732.657 474.608C732.657 471.824 733.217 469.392 734.337 467.312C735.489 465.232 737.089 463.632 739.137 462.512C741.185 461.392 743.537 460.832 746.193 460.832C748.785 460.832 751.089 461.376 753.105 462.464C755.121 463.552 756.689 465.104 757.809 467.12C758.961 469.136 759.536 471.488 759.536 474.176ZM751.137 472.016C751.137 470.608 750.657 469.488 749.697 468.656C748.737 467.824 747.537 467.408 746.097 467.408C744.721 467.408 743.553 467.808 742.593 468.608C741.665 469.408 741.089 470.544 740.865 472.016H751.137ZM798.043 460.928C801.371 460.928 804.011 461.936 805.963 463.952C807.947 465.968 808.939 468.768 808.939 472.352V488H800.779V473.456C800.779 471.728 800.315 470.4 799.387 469.472C798.491 468.512 797.243 468.032 795.643 468.032C794.043 468.032 792.779 468.512 791.851 469.472C790.955 470.4 790.507 471.728 790.507 473.456V488H782.347V473.456C782.347 471.728 781.883 470.4 780.955 469.472C780.059 468.512 778.811 468.032 777.211 468.032C775.611 468.032 774.347 468.512 773.419 469.472C772.523 470.4 772.075 471.728 772.075 473.456V488H763.867V461.216H772.075V464.576C772.907 463.456 773.995 462.576 775.339 461.936C776.683 461.264 778.203 460.928 779.899 460.928C781.915 460.928 783.707 461.36 785.275 462.224C786.875 463.088 788.123 464.32 789.019 465.92C789.947 464.448 791.211 463.248 792.811 462.32C794.411 461.392 796.155 460.928 798.043 460.928Z" fill="white"/>
<path d="M456.979 382.304V405.248C456.979 408.8 455.971 411.536 453.955 413.456C451.971 415.376 449.283 416.336 445.891 416.336C442.339 416.336 439.491 415.328 437.347 413.312C435.203 411.296 434.131 408.432 434.131 404.72H442.291C442.291 406.128 442.579 407.2 443.155 407.936C443.731 408.64 444.563 408.992 445.651 408.992C446.643 408.992 447.411 408.672 447.955 408.032C448.499 407.392 448.771 406.464 448.771 405.248V382.304H456.979ZM488.857 402.176C488.857 402.944 488.809 403.744 488.713 404.576H470.137C470.265 406.24 470.793 407.52 471.721 408.416C472.681 409.28 473.849 409.712 475.225 409.712C477.273 409.712 478.697 408.848 479.497 407.12H488.233C487.785 408.88 486.969 410.464 485.785 411.872C484.633 413.28 483.177 414.384 481.417 415.184C479.657 415.984 477.689 416.384 475.513 416.384C472.889 416.384 470.553 415.824 468.505 414.704C466.457 413.584 464.857 411.984 463.705 409.904C462.553 407.824 461.977 405.392 461.977 402.608C461.977 399.824 462.537 397.392 463.657 395.312C464.809 393.232 466.409 391.632 468.457 390.512C470.505 389.392 472.857 388.832 475.513 388.832C478.105 388.832 480.409 389.376 482.425 390.464C484.441 391.552 486.009 393.104 487.129 395.12C488.281 397.136 488.857 399.488 488.857 402.176ZM480.457 400.016C480.457 398.608 479.977 397.488 479.017 396.656C478.057 395.824 476.857 395.408 475.417 395.408C474.041 395.408 472.873 395.808 471.913 396.608C470.985 397.408 470.409 398.544 470.185 400.016H480.457ZM504.083 416.384C501.747 416.384 499.667 415.984 497.843 415.184C496.019 414.384 494.579 413.296 493.523 411.92C492.467 410.512 491.875 408.944 491.747 407.216H499.859C499.955 408.144 500.387 408.896 501.155 409.472C501.923 410.048 502.867 410.336 503.987 410.336C505.011 410.336 505.795 410.144 506.339 409.76C506.915 409.344 507.203 408.816 507.203 408.176C507.203 407.408 506.803 406.848 506.003 406.496C505.203 406.112 503.907 405.696 502.115 405.248C500.195 404.8 498.595 404.336 497.315 403.856C496.035 403.344 494.931 402.56 494.003 401.504C493.075 400.416 492.611 398.96 492.611 397.136C492.611 395.6 493.027 394.208 493.859 392.96C494.723 391.68 495.971 390.672 497.603 389.936C499.267 389.2 501.235 388.832 503.507 388.832C506.867 388.832 509.507 389.664 511.427 391.328C513.379 392.992 514.499 395.2 514.787 397.952H507.203C507.075 397.024 506.659 396.288 505.955 395.744C505.283 395.2 504.387 394.928 503.267 394.928C502.307 394.928 501.571 395.12 501.059 395.504C500.547 395.856 500.291 396.352 500.291 396.992C500.291 397.76 500.691 398.336 501.491 398.72C502.323 399.104 503.603 399.488 505.331 399.872C507.315 400.384 508.931 400.896 510.179 401.408C511.427 401.888 512.515 402.688 513.443 403.808C514.403 404.896 514.899 406.368 514.931 408.224C514.931 409.792 514.483 411.2 513.587 412.448C512.723 413.664 511.459 414.624 509.795 415.328C508.163 416.032 506.259 416.384 504.083 416.384ZM534.881 409.04V416H530.705C527.729 416 525.409 415.28 523.745 413.84C522.081 412.368 521.249 409.984 521.249 406.688V396.032H517.985V389.216H521.249V382.688H529.457V389.216H534.833V396.032H529.457V406.784C529.457 407.584 529.649 408.16 530.033 408.512C530.417 408.864 531.057 409.04 531.953 409.04H534.881ZM564.701 402.176C564.701 402.944 564.653 403.744 564.557 404.576H545.981C546.109 406.24 546.637 407.52 547.565 408.416C548.525 409.28 549.693 409.712 551.069 409.712C553.117 409.712 554.541 408.848 555.341 407.12H564.077C563.629 408.88 562.813 410.464 561.629 411.872C560.477 413.28 559.021 414.384 557.261 415.184C555.501 415.984 553.533 416.384 551.357 416.384C548.733 416.384 546.397 415.824 544.349 414.704C542.301 413.584 540.701 411.984 539.549 409.904C538.397 407.824 537.821 405.392 537.821 402.608C537.821 399.824 538.381 397.392 539.501 395.312C540.653 393.232 542.253 391.632 544.301 390.512C546.349 389.392 548.701 388.832 551.357 388.832C553.949 388.832 556.253 389.376 558.269 390.464C560.285 391.552 561.853 393.104 562.973 395.12C564.125 397.136 564.701 399.488 564.701 402.176ZM556.301 400.016C556.301 398.608 555.821 397.488 554.861 396.656C553.901 395.824 552.701 395.408 551.261 395.408C549.885 395.408 548.717 395.808 547.757 396.608C546.829 397.408 546.253 398.544 546.029 400.016H556.301ZM603.207 388.928C606.535 388.928 609.175 389.936 611.127 391.952C613.111 393.968 614.103 396.768 614.103 400.352V416H605.943V401.456C605.943 399.728 605.479 398.4 604.551 397.472C603.655 396.512 602.407 396.032 600.807 396.032C599.207 396.032 597.943 396.512 597.015 397.472C596.119 398.4 595.671 399.728 595.671 401.456V416H587.511V401.456C587.511 399.728 587.047 398.4 586.119 397.472C585.223 396.512 583.975 396.032 582.375 396.032C580.775 396.032 579.511 396.512 578.583 397.472C577.687 398.4 577.239 399.728 577.239 401.456V416H569.031V389.216H577.239V392.576C578.071 391.456 579.159 390.576 580.503 389.936C581.847 389.264 583.367 388.928 585.063 388.928C587.079 388.928 588.871 389.36 590.439 390.224C592.039 391.088 593.287 392.32 594.183 393.92C595.111 392.448 596.375 391.248 597.975 390.32C599.575 389.392 601.319 388.928 603.207 388.928ZM651.951 382.304V388.88H638.223V395.984H648.495V402.368H638.223V416H630.015V382.304H651.951ZM664.473 393.68C665.433 392.208 666.633 391.056 668.073 390.224C669.513 389.36 671.113 388.928 672.873 388.928V397.616H670.617C668.569 397.616 667.033 398.064 666.009 398.96C664.985 399.824 664.473 401.36 664.473 403.568V416H656.265V389.216H664.473V393.68ZM688.988 416.384C686.364 416.384 683.996 415.824 681.884 414.704C679.804 413.584 678.156 411.984 676.94 409.904C675.756 407.824 675.164 405.392 675.164 402.608C675.164 399.856 675.772 397.44 676.988 395.36C678.204 393.248 679.868 391.632 681.98 390.512C684.092 389.392 686.46 388.832 689.084 388.832C691.708 388.832 694.076 389.392 696.188 390.512C698.3 391.632 699.964 393.248 701.18 395.36C702.396 397.44 703.004 399.856 703.004 402.608C703.004 405.36 702.38 407.792 701.132 409.904C699.916 411.984 698.236 413.584 696.092 414.704C693.98 415.824 691.612 416.384 688.988 416.384ZM688.988 409.28C690.556 409.28 691.884 408.704 692.972 407.552C694.092 406.4 694.652 404.752 694.652 402.608C694.652 400.464 694.108 398.816 693.02 397.664C691.964 396.512 690.652 395.936 689.084 395.936C687.484 395.936 686.156 396.512 685.1 397.664C684.044 398.784 683.516 400.432 683.516 402.608C683.516 404.752 684.028 406.4 685.052 407.552C686.108 408.704 687.42 409.28 688.988 409.28ZM723.679 388.928C726.815 388.928 729.311 389.952 731.167 392C733.055 394.016 733.999 396.8 733.999 400.352V416H725.839V401.456C725.839 399.664 725.375 398.272 724.447 397.28C723.519 396.288 722.271 395.792 720.703 395.792C719.135 395.792 717.887 396.288 716.959 397.28C716.031 398.272 715.567 399.664 715.567 401.456V416H707.359V389.216H715.567V392.768C716.399 391.584 717.519 390.656 718.927 389.984C720.335 389.28 721.919 388.928 723.679 388.928ZM754.631 409.04V416H750.455C747.479 416 745.159 415.28 743.495 413.84C741.831 412.368 740.999 409.984 740.999 406.688V396.032H737.735V389.216H740.999V382.688H749.207V389.216H754.583V396.032H749.207V406.784C749.207 407.584 749.399 408.16 749.783 408.512C750.167 408.864 750.807 409.04 751.703 409.04H754.631ZM767.411 388.88V395.696H778.403V402.032H767.411V409.424H779.843V416H759.203V382.304H779.843V388.88H767.411ZM801.491 388.928C804.627 388.928 807.123 389.952 808.979 392C810.867 394.016 811.811 396.8 811.811 400.352V416H803.651V401.456C803.651 399.664 803.187 398.272 802.259 397.28C801.331 396.288 800.083 395.792 798.515 395.792C796.947 395.792 795.699 396.288 794.771 397.28C793.843 398.272 793.379 399.664 793.379 401.456V416H785.171V389.216H793.379V392.768C794.211 391.584 795.331 390.656 796.739 389.984C798.147 389.28 799.731 388.928 801.491 388.928ZM815.883 402.56C815.883 399.808 816.395 397.392 817.419 395.312C818.475 393.232 819.899 391.632 821.691 390.512C823.483 389.392 825.483 388.832 827.691 388.832C829.451 388.832 831.051 389.2 832.491 389.936C833.963 390.672 835.115 391.664 835.947 392.912V380.48H844.155V416H835.947V412.16C835.179 413.44 834.075 414.464 832.635 415.232C831.227 416 829.579 416.384 827.691 416.384C825.483 416.384 823.483 415.824 821.691 414.704C819.899 413.552 818.475 411.936 817.419 409.856C816.395 407.744 815.883 405.312 815.883 402.56ZM835.947 402.608C835.947 400.56 835.371 398.944 834.219 397.76C833.099 396.576 831.723 395.984 830.091 395.984C828.459 395.984 827.067 396.576 825.915 397.76C824.795 398.912 824.235 400.512 824.235 402.56C824.235 404.608 824.795 406.24 825.915 407.456C827.067 408.64 828.459 409.232 830.091 409.232C831.723 409.232 833.099 408.64 834.219 407.456C835.371 406.272 835.947 404.656 835.947 402.608ZM483.897 454.304C487.449 454.304 490.553 455.008 493.209 456.416C495.865 457.824 497.913 459.808 499.353 462.368C500.825 464.896 501.561 467.824 501.561 471.152C501.561 474.448 500.825 477.376 499.353 479.936C497.913 482.496 495.849 484.48 493.161 485.888C490.505 487.296 487.417 488 483.897 488H471.273V454.304H483.897ZM483.369 480.896C486.473 480.896 488.889 480.048 490.617 478.352C492.345 476.656 493.209 474.256 493.209 471.152C493.209 468.048 492.345 465.632 490.617 463.904C488.889 462.176 486.473 461.312 483.369 461.312H479.481V480.896H483.369ZM531.396 474.176C531.396 474.944 531.348 475.744 531.252 476.576H512.676C512.804 478.24 513.332 479.52 514.26 480.416C515.22 481.28 516.388 481.712 517.764 481.712C519.812 481.712 521.236 480.848 522.036 479.12H530.772C530.324 480.88 529.508 482.464 528.324 483.872C527.172 485.28 525.716 486.384 523.956 487.184C522.196 487.984 520.228 488.384 518.052 488.384C515.428 488.384 513.092 487.824 511.044 486.704C508.996 485.584 507.396 483.984 506.244 481.904C505.092 479.824 504.516 477.392 504.516 474.608C504.516 471.824 505.076 469.392 506.196 467.312C507.348 465.232 508.948 463.632 510.996 462.512C513.044 461.392 515.396 460.832 518.052 460.832C520.644 460.832 522.948 461.376 524.964 462.464C526.98 463.552 528.548 465.104 529.668 467.12C530.82 469.136 531.396 471.488 531.396 474.176ZM522.996 472.016C522.996 470.608 522.516 469.488 521.556 468.656C520.596 467.824 519.396 467.408 517.956 467.408C516.58 467.408 515.412 467.808 514.452 468.608C513.524 469.408 512.948 470.544 512.724 472.016H522.996ZM574.174 461.216L566.926 488H557.854L553.63 470.624L549.262 488H540.238L532.942 461.216H541.15L544.942 480.368L549.454 461.216H558.142L562.702 480.272L566.446 461.216H574.174ZM602.552 474.176C602.552 474.944 602.504 475.744 602.408 476.576H583.832C583.96 478.24 584.488 479.52 585.416 480.416C586.376 481.28 587.544 481.712 588.92 481.712C590.968 481.712 592.392 480.848 593.192 479.12H601.928C601.48 480.88 600.664 482.464 599.48 483.872C598.328 485.28 596.872 486.384 595.112 487.184C593.352 487.984 591.384 488.384 589.208 488.384C586.584 488.384 584.248 487.824 582.2 486.704C580.152 485.584 578.552 483.984 577.4 481.904C576.248 479.824 575.672 477.392 575.672 474.608C575.672 471.824 576.232 469.392 577.352 467.312C578.504 465.232 580.104 463.632 582.152 462.512C584.2 461.392 586.552 460.832 589.208 460.832C591.8 460.832 594.104 461.376 596.12 462.464C598.136 463.552 599.704 465.104 600.824 467.12C601.976 469.136 602.552 471.488 602.552 474.176ZM594.152 472.016C594.152 470.608 593.672 469.488 592.712 468.656C591.752 467.824 590.552 467.408 589.112 467.408C587.736 467.408 586.568 467.808 585.608 468.608C584.68 469.408 584.104 470.544 583.88 472.016H594.152ZM615.09 452.48V488H606.882V452.48H615.09ZM633.231 488.384C630.607 488.384 628.239 487.824 626.127 486.704C624.047 485.584 622.399 483.984 621.183 481.904C619.999 479.824 619.407 477.392 619.407 474.608C619.407 471.856 620.015 469.44 621.23 467.36C622.447 465.248 624.111 463.632 626.223 462.512C628.335 461.392 630.703 460.832 633.327 460.832C635.951 460.832 638.319 461.392 640.431 462.512C642.543 463.632 644.207 465.248 645.423 467.36C646.639 469.44 647.247 471.856 647.247 474.608C647.247 477.36 646.623 479.792 645.375 481.904C644.159 483.984 642.479 485.584 640.335 486.704C638.223 487.824 635.855 488.384 633.231 488.384ZM633.231 481.28C634.799 481.28 636.127 480.704 637.215 479.552C638.335 478.4 638.895 476.752 638.895 474.608C638.895 472.464 638.351 470.816 637.263 469.664C636.207 468.512 634.895 467.936 633.327 467.936C631.727 467.936 630.399 468.512 629.343 469.664C628.287 470.784 627.759 472.432 627.759 474.608C627.759 476.752 628.271 478.4 629.295 479.552C630.351 480.704 631.663 481.28 633.231 481.28ZM659.809 465.008C660.609 463.76 661.713 462.752 663.121 461.984C664.529 461.216 666.177 460.832 668.065 460.832C670.273 460.832 672.273 461.392 674.065 462.512C675.857 463.632 677.265 465.232 678.289 467.312C679.345 469.392 679.873 471.808 679.873 474.56C679.873 477.312 679.345 479.744 678.289 481.856C677.265 483.936 675.857 485.552 674.065 486.704C672.273 487.824 670.273 488.384 668.065 488.384C666.209 488.384 664.561 488 663.121 487.232C661.713 486.464 660.609 485.472 659.809 484.256V500.768H651.601V461.216H659.809V465.008ZM671.521 474.56C671.521 472.512 670.945 470.912 669.793 469.76C668.673 468.576 667.281 467.984 665.617 467.984C663.985 467.984 662.593 468.576 661.441 469.76C660.321 470.944 659.761 472.56 659.761 474.608C659.761 476.656 660.321 478.272 661.441 479.456C662.593 480.64 663.985 481.232 665.617 481.232C667.249 481.232 668.641 480.64 669.793 479.456C670.945 478.24 671.521 476.608 671.521 474.56ZM709.427 474.176C709.427 474.944 709.379 475.744 709.283 476.576H690.707C690.835 478.24 691.363 479.52 692.291 480.416C693.251 481.28 694.419 481.712 695.795 481.712C697.843 481.712 699.267 480.848 700.067 479.12H708.803C708.355 480.88 707.539 482.464 706.355 483.872C705.203 485.28 703.747 486.384 701.987 487.184C700.227 487.984 698.259 488.384 696.083 488.384C693.459 488.384 691.123 487.824 689.075 486.704C687.027 485.584 685.427 483.984 684.275 481.904C683.123 479.824 682.547 477.392 682.547 474.608C682.547 471.824 683.107 469.392 684.227 467.312C685.379 465.232 686.979 463.632 689.027 462.512C691.075 461.392 693.427 460.832 696.083 460.832C698.675 460.832 700.979 461.376 702.995 462.464C705.011 463.552 706.579 465.104 707.699 467.12C708.851 469.136 709.427 471.488 709.427 474.176ZM701.027 472.016C701.027 470.608 700.547 469.488 699.587 468.656C698.627 467.824 697.427 467.408 695.987 467.408C694.611 467.408 693.443 467.808 692.483 468.608C691.555 469.408 690.979 470.544 690.755 472.016H701.027ZM721.965 465.68C722.925 464.208 724.125 463.056 725.565 462.224C727.005 461.36 728.605 460.928 730.365 460.928V469.616H728.109C726.061 469.616 724.525 470.064 723.501 470.96C722.477 471.824 721.965 473.36 721.965 475.568V488H713.757V461.216H721.965V465.68ZM759.536 474.176C759.536 474.944 759.489 475.744 759.393 476.576H740.817C740.945 478.24 741.473 479.52 742.401 480.416C743.361 481.28 744.529 481.712 745.905 481.712C747.953 481.712 749.377 480.848 750.177 479.12H758.913C758.465 480.88 757.649 482.464 756.465 483.872C755.313 485.28 753.857 486.384 752.097 487.184C750.337 487.984 748.369 488.384 746.193 488.384C743.569 488.384 741.233 487.824 739.185 486.704C737.137 485.584 735.537 483.984 734.385 481.904C733.233 479.824 732.657 477.392 732.657 474.608C732.657 471.824 733.217 469.392 734.337 467.312C735.489 465.232 737.089 463.632 739.137 462.512C741.185 461.392 743.537 460.832 746.193 460.832C748.785 460.832 751.089 461.376 753.105 462.464C755.121 463.552 756.689 465.104 757.809 467.12C758.961 469.136 759.536 471.488 759.536 474.176ZM751.137 472.016C751.137 470.608 750.657 469.488 749.697 468.656C748.737 467.824 747.537 467.408 746.097 467.408C744.721 467.408 743.553 467.808 742.593 468.608C741.665 469.408 741.089 470.544 740.865 472.016H751.137ZM798.043 460.928C801.371 460.928 804.011 461.936 805.963 463.952C807.947 465.968 808.939 468.768 808.939 472.352V488H800.779V473.456C800.779 471.728 800.315 470.4 799.387 469.472C798.491 468.512 797.243 468.032 795.643 468.032C794.043 468.032 792.779 468.512 791.851 469.472C790.955 470.4 790.507 471.728 790.507 473.456V488H782.347V473.456C782.347 471.728 781.883 470.4 780.955 469.472C780.059 468.512 778.811 468.032 777.211 468.032C775.611 468.032 774.347 468.512 773.419 469.472C772.523 470.4 772.075 471.728 772.075 473.456V488H763.867V461.216H772.075V464.576C772.907 463.456 773.995 462.576 775.339 461.936C776.683 461.264 778.203 460.928 779.899 460.928C781.915 460.928 783.707 461.36 785.275 462.224C786.875 463.088 788.123 464.32 789.019 465.92C789.947 464.448 791.211 463.248 792.811 462.32C794.411 461.392 796.155 460.928 798.043 460.928Z" fill="white"/>
<rect x="637" y="714" width="6" height="57" fill="white"/>
<path d="M673.125 747.084C672.573 747.084 672.085 746.988 671.661 746.796C671.245 746.604 670.917 746.336 670.677 745.992C670.437 745.648 670.309 745.264 670.293 744.84H671.181C671.221 745.248 671.401 745.608 671.721 745.92C672.041 746.224 672.509 746.376 673.125 746.376C673.693 746.376 674.141 746.232 674.469 745.944C674.805 745.648 674.973 745.276 674.973 744.828C674.973 744.468 674.881 744.18 674.697 743.964C674.513 743.74 674.285 743.576 674.013 743.472C673.741 743.36 673.365 743.24 672.885 743.112C672.325 742.96 671.881 742.812 671.553 742.668C671.225 742.524 670.945 742.3 670.713 741.996C670.481 741.692 670.365 741.28 670.365 740.76C670.365 740.328 670.477 739.944 670.701 739.608C670.925 739.264 671.241 738.996 671.649 738.804C672.057 738.612 672.525 738.516 673.053 738.516C673.829 738.516 674.453 738.708 674.925 739.092C675.405 739.468 675.681 739.956 675.753 740.556H674.841C674.785 740.212 674.597 739.908 674.277 739.644C673.957 739.372 673.525 739.236 672.981 739.236C672.477 739.236 672.057 739.372 671.721 739.644C671.385 739.908 671.217 740.272 671.217 740.736C671.217 741.088 671.309 741.372 671.493 741.588C671.677 741.804 671.905 741.968 672.177 742.08C672.457 742.192 672.833 742.312 673.305 742.44C673.849 742.592 674.289 742.744 674.625 742.896C674.961 743.04 675.245 743.264 675.477 743.568C675.709 743.872 675.825 744.28 675.825 744.792C675.825 745.184 675.721 745.556 675.513 745.908C675.305 746.26 674.997 746.544 674.589 746.76C674.181 746.976 673.693 747.084 673.125 747.084ZM677.064 743.724C677.064 743.044 677.2 742.452 677.472 741.948C677.744 741.436 678.12 741.044 678.6 740.772C679.08 740.492 679.628 740.352 680.244 740.352C681.052 740.352 681.716 740.552 682.236 740.952C682.764 741.352 683.104 741.896 683.256 742.584H682.356C682.244 742.112 682 741.744 681.624 741.48C681.256 741.208 680.796 741.072 680.244 741.072C679.804 741.072 679.408 741.172 679.056 741.372C678.704 741.572 678.424 741.872 678.216 742.272C678.016 742.664 677.916 743.148 677.916 743.724C677.916 744.3 678.016 744.788 678.216 745.188C678.424 745.588 678.704 745.888 679.056 746.088C679.408 746.288 679.804 746.388 680.244 746.388C680.796 746.388 681.256 746.256 681.624 745.992C682 745.72 682.244 745.344 682.356 744.864H683.256C683.104 745.536 682.764 746.076 682.236 746.484C681.708 746.892 681.044 747.096 680.244 747.096C679.628 747.096 679.08 746.96 678.6 746.688C678.12 746.408 677.744 746.016 677.472 745.512C677.2 745 677.064 744.404 677.064 743.724ZM685.648 741.612C685.832 741.204 686.112 740.888 686.488 740.664C686.872 740.44 687.34 740.328 687.892 740.328V741.204H687.664C687.056 741.204 686.568 741.368 686.2 741.696C685.832 742.024 685.648 742.572 685.648 743.34V747H684.808V740.448H685.648V741.612ZM692.023 747.096C691.407 747.096 690.851 746.96 690.355 746.688C689.867 746.408 689.479 746.016 689.191 745.512C688.911 745 688.771 744.404 688.771 743.724C688.771 743.044 688.915 742.452 689.203 741.948C689.491 741.436 689.883 741.044 690.379 740.772C690.875 740.492 691.431 740.352 692.047 740.352C692.663 740.352 693.219 740.492 693.715 740.772C694.219 741.044 694.611 741.436 694.891 741.948C695.179 742.452 695.323 743.044 695.323 743.724C695.323 744.396 695.179 744.988 694.891 745.5C694.603 746.012 694.207 746.408 693.703 746.688C693.199 746.96 692.639 747.096 692.023 747.096ZM692.023 746.364C692.455 746.364 692.855 746.268 693.223 746.076C693.591 745.876 693.887 745.58 694.111 745.188C694.343 744.788 694.459 744.3 694.459 743.724C694.459 743.148 694.347 742.664 694.123 742.272C693.899 741.872 693.603 741.576 693.235 741.384C692.867 741.184 692.467 741.084 692.035 741.084C691.603 741.084 691.203 741.184 690.835 741.384C690.467 741.576 690.171 741.872 689.947 742.272C689.731 742.664 689.623 743.148 689.623 743.724C689.623 744.3 689.731 744.788 689.947 745.188C690.171 745.58 690.463 745.876 690.823 746.076C691.191 746.268 691.591 746.364 692.023 746.364ZM697.695 738.12V747H696.855V738.12H697.695ZM700.437 738.12V747H699.597V738.12H700.437Z" fill="white"/>
<rect x="411.5" y="583.5" width="171" height="53" rx="13.5" fill="#252A34" stroke="#D9D9D9" stroke-width="3"/>
<rect x="696" y="582" width="174" height="56" rx="15" fill="#D9D9D9"/>
<path d="M466.131 616L460.391 609.64V616H458.571V602.06H460.391V608.52L466.151 602.06H468.451L462.131 609.04L468.511 616H466.131ZM475.324 616.18C474.297 616.18 473.364 615.947 472.524 615.48C471.697 615.013 471.044 614.353 470.564 613.5C470.097 612.633 469.864 611.633 469.864 610.5C469.864 609.38 470.104 608.393 470.584 607.54C471.077 606.673 471.744 606.013 472.584 605.56C473.424 605.093 474.364 604.86 475.404 604.86C476.444 604.86 477.384 605.093 478.224 605.56C479.064 606.013 479.724 606.667 480.204 607.52C480.697 608.373 480.944 609.367 480.944 610.5C480.944 611.633 480.691 612.633 480.184 613.5C479.691 614.353 479.017 615.013 478.164 615.48C477.311 615.947 476.364 616.18 475.324 616.18ZM475.324 614.58C475.977 614.58 476.591 614.427 477.164 614.12C477.737 613.813 478.197 613.353 478.544 612.74C478.904 612.127 479.084 611.38 479.084 610.5C479.084 609.62 478.911 608.873 478.564 608.26C478.217 607.647 477.764 607.193 477.204 606.9C476.644 606.593 476.037 606.44 475.384 606.44C474.717 606.44 474.104 606.593 473.544 606.9C472.997 607.193 472.557 607.647 472.224 608.26C471.891 608.873 471.724 609.62 471.724 610.5C471.724 611.393 471.884 612.147 472.204 612.76C472.537 613.373 472.977 613.833 473.524 614.14C474.071 614.433 474.671 614.58 475.324 614.58ZM488.677 604.84C490.01 604.84 491.09 605.247 491.917 606.06C492.744 606.86 493.157 608.02 493.157 609.54V616H491.357V609.8C491.357 608.707 491.084 607.873 490.537 607.3C489.99 606.713 489.244 606.42 488.297 606.42C487.337 606.42 486.57 606.72 485.997 607.32C485.437 607.92 485.157 608.793 485.157 609.94V616H483.337V605.04H485.157V606.6C485.517 606.04 486.004 605.607 486.617 605.3C487.244 604.993 487.93 604.84 488.677 604.84ZM498.35 606.54V613C498.35 613.533 498.463 613.913 498.69 614.14C498.917 614.353 499.31 614.46 499.87 614.46H501.21V616H499.57C498.557 616 497.797 615.767 497.29 615.3C496.783 614.833 496.53 614.067 496.53 613V606.54H495.11V605.04H496.53V602.28H498.35V605.04H501.21V606.54H498.35ZM502.735 610.48C502.735 609.36 502.962 608.38 503.415 607.54C503.868 606.687 504.488 606.027 505.275 605.56C506.075 605.093 506.962 604.86 507.935 604.86C508.895 604.86 509.728 605.067 510.435 605.48C511.142 605.893 511.668 606.413 512.015 607.04V605.04H513.855V616H512.015V613.96C511.655 614.6 511.115 615.133 510.395 615.56C509.688 615.973 508.862 616.18 507.915 616.18C506.942 616.18 506.062 615.94 505.275 615.46C504.488 614.98 503.868 614.307 503.415 613.44C502.962 612.573 502.735 611.587 502.735 610.48ZM512.015 610.5C512.015 609.673 511.848 608.953 511.515 608.34C511.182 607.727 510.728 607.26 510.155 606.94C509.595 606.607 508.975 606.44 508.295 606.44C507.615 606.44 506.995 606.6 506.435 606.92C505.875 607.24 505.428 607.707 505.095 608.32C504.762 608.933 504.595 609.653 504.595 610.48C504.595 611.32 504.762 612.053 505.095 612.68C505.428 613.293 505.875 613.767 506.435 614.1C506.995 614.42 507.615 614.58 508.295 614.58C508.975 614.58 509.595 614.42 510.155 614.1C510.728 613.767 511.182 613.293 511.515 612.68C511.848 612.053 512.015 611.327 512.015 610.5ZM523.051 616L518.751 611.16V616H516.931V601.2H518.751V609.9L522.971 605.04H525.511L520.351 610.5L525.531 616H523.051ZM529.444 606.54V613C529.444 613.533 529.557 613.913 529.784 614.14C530.01 614.353 530.404 614.46 530.964 614.46H532.304V616H530.664C529.65 616 528.89 615.767 528.384 615.3C527.877 614.833 527.624 614.067 527.624 613V606.54H526.204V605.04H527.624V602.28H529.444V605.04H532.304V606.54H529.444Z" fill="white"/>
<path d="M756.131 617L750.391 610.64V617H748.571V603.06H750.391V609.52L756.151 603.06H758.451L752.131 610.04L758.511 617H756.131ZM765.324 617.18C764.297 617.18 763.364 616.947 762.524 616.48C761.697 616.013 761.044 615.353 760.564 614.5C760.097 613.633 759.864 612.633 759.864 611.5C759.864 610.38 760.104 609.393 760.584 608.54C761.077 607.673 761.744 607.013 762.584 606.56C763.424 606.093 764.364 605.86 765.404 605.86C766.444 605.86 767.384 606.093 768.224 606.56C769.064 607.013 769.724 607.667 770.204 608.52C770.697 609.373 770.944 610.367 770.944 611.5C770.944 612.633 770.691 613.633 770.184 614.5C769.691 615.353 769.017 616.013 768.164 616.48C767.311 616.947 766.364 617.18 765.324 617.18ZM765.324 615.58C765.977 615.58 766.591 615.427 767.164 615.12C767.737 614.813 768.197 614.353 768.544 613.74C768.904 613.127 769.084 612.38 769.084 611.5C769.084 610.62 768.911 609.873 768.564 609.26C768.217 608.647 767.764 608.193 767.204 607.9C766.644 607.593 766.037 607.44 765.384 607.44C764.717 607.44 764.104 607.593 763.544 607.9C762.997 608.193 762.557 608.647 762.224 609.26C761.891 609.873 761.724 610.62 761.724 611.5C761.724 612.393 761.884 613.147 762.204 613.76C762.537 614.373 762.977 614.833 763.524 615.14C764.071 615.433 764.671 615.58 765.324 615.58ZM778.677 605.84C780.01 605.84 781.09 606.247 781.917 607.06C782.744 607.86 783.157 609.02 783.157 610.54V617H781.357V610.8C781.357 609.707 781.084 608.873 780.537 608.3C779.99 607.713 779.244 607.42 778.297 607.42C777.337 607.42 776.57 607.72 775.997 608.32C775.437 608.92 775.157 609.793 775.157 610.94V617H773.337V606.04H775.157V607.6C775.517 607.04 776.004 606.607 776.617 606.3C777.244 605.993 777.93 605.84 778.677 605.84ZM788.35 607.54V614C788.35 614.533 788.463 614.913 788.69 615.14C788.917 615.353 789.31 615.46 789.87 615.46H791.21V617H789.57C788.557 617 787.797 616.767 787.29 616.3C786.783 615.833 786.53 615.067 786.53 614V607.54H785.11V606.04H786.53V603.28H788.35V606.04H791.21V607.54H788.35ZM792.735 611.48C792.735 610.36 792.962 609.38 793.415 608.54C793.868 607.687 794.488 607.027 795.275 606.56C796.075 606.093 796.962 605.86 797.935 605.86C798.895 605.86 799.728 606.067 800.435 606.48C801.142 606.893 801.668 607.413 802.015 608.04V606.04H803.855V617H802.015V614.96C801.655 615.6 801.115 616.133 800.395 616.56C799.688 616.973 798.862 617.18 797.915 617.18C796.942 617.18 796.062 616.94 795.275 616.46C794.488 615.98 793.868 615.307 793.415 614.44C792.962 613.573 792.735 612.587 792.735 611.48ZM802.015 611.5C802.015 610.673 801.848 609.953 801.515 609.34C801.182 608.727 800.728 608.26 800.155 607.94C799.595 607.607 798.975 607.44 798.295 607.44C797.615 607.44 796.995 607.6 796.435 607.92C795.875 608.24 795.428 608.707 795.095 609.32C794.762 609.933 794.595 610.653 794.595 611.48C794.595 612.32 794.762 613.053 795.095 613.68C795.428 614.293 795.875 614.767 796.435 615.1C796.995 615.42 797.615 615.58 798.295 615.58C798.975 615.58 799.595 615.42 800.155 615.1C800.728 614.767 801.182 614.293 801.515 613.68C801.848 613.053 802.015 612.327 802.015 611.5ZM813.051 617L808.751 612.16V617H806.931V602.2H808.751V610.9L812.971 606.04H815.511L810.351 611.5L815.531 617H813.051ZM819.444 607.54V614C819.444 614.533 819.557 614.913 819.784 615.14C820.01 615.353 820.404 615.46 820.964 615.46H822.304V617H820.664C819.65 617 818.89 616.767 818.384 616.3C817.877 615.833 817.624 615.067 817.624 614V607.54H816.204V606.04H817.624V603.28H819.444V606.04H822.304V607.54H819.444Z" fill="#252A34"/>
</svg>
